<svg xmlns="http://www.w3.org/2000/svg" width="165" height="165" viewBox="0 0 165 165"><g id="Grupo_474" data-name="Grupo 474" transform="translate(-1358.5 -764)"><rect id="Ret&#xE2;ngulo_53" data-name="Ret&#xE2;ngulo 53" width="165" height="165" rx="11" transform="translate(1358.5 764)" fill="#ff6f00"></rect><path id="Caminho_137" data-name="Caminho 137" d="M723.735-609.915v-5.856c-1.149-.14-2.268-.21-3.36-.42a15.311,15.311,0,0,1-12.444-14.519q-.038-1.054-.015-2.11c.028-1.191.415-1.565,1.583-1.625a15.614,15.614,0,0,1,13.806,6.04,2.678,2.678,0,0,0,.292.294c.015.014.063-.006.14-.016v-5.859c-1.337-.187-2.668-.27-3.95-.57a15.284,15.284,0,0,1-11.86-14.464c-.021-.633-.023-1.266-.014-1.9.018-1.35.431-1.745,1.756-1.793a15.673,15.673,0,0,1,13.671,6.126,4.426,4.426,0,0,0,.437.387c0-1.5.065-2.821-.039-4.132-.032-.409-.472-.828-.806-1.163a15.25,15.25,0,0,1-4.653-9.67,15.033,15.033,0,0,1,4.018-11.813c.54-.6,1.119-1.169,1.7-1.727a1.25,1.25,0,0,1,1.876-.017c7.92,6.863,7.223,17.295,1.238,22.938a2.359,2.359,0,0,0-.607,1.455c-.084,1.292-.028,2.594-.028,4.118.346-.368.556-.571.742-.794,3.566-4.269,8.206-5.968,13.662-5.7.978.048,1.418.614,1.471,1.575.6,10.883-7.849,17.121-15.249,16.993a4.229,4.229,0,0,0-.561.069v6.028c.717-.773,1.3-1.459,1.939-2.082a15.689,15.689,0,0,1,12.564-4.305c.912.059,1.249.648,1.3,1.49A15.582,15.582,0,0,1,727.466-615.9c-.279.019-.556.045-.908.074v5.831c.27-.287.475-.486.657-.7,3.563-4.271,8.2-5.976,13.657-5.71a1.435,1.435,0,0,1,1.484,1.563c.613,10.873-7.821,17.119-15.235,17a6.1,6.1,0,0,0-.631.067c0,2.525-.021,5.01.036,7.494.005.232.474.523.784.666,4.586,2.123,9.184,4.221,13.769,6.345.4.185.921.452,1.046.8a1.645,1.645,0,0,1-.178,1.413,1.5,1.5,0,0,1-1.375.258c-1.543-.673-3.017-1.5-4.531-2.241a110.152,110.152,0,0,0-31.26-10.094,95.477,95.477,0,0,0-23.239-.821c-14.647,1.266-28.28,5.8-41.206,12.658-.31.165-.618.336-.935.487a1.151,1.151,0,0,1-1.709-.461,1.15,1.15,0,0,1,.575-1.751c2.249-1.155,4.481-2.348,6.772-3.415,2.417-1.126,4.9-2.108,7.338-3.193.32-.143.756-.516.763-.792.06-2.422.035-4.846.035-7.269-1.317-.194-2.577-.288-3.793-.573a15.348,15.348,0,0,1-11.89-14.883c-.026-3.127-.025-3.158,3.128-3.076a15.188,15.188,0,0,1,11.662,5.67c.225.267.44.542.79.974v-6.214c-1.025-.13-2.071-.2-3.094-.4a15.373,15.373,0,0,1-12.486-15.039c-.023-3.273,0-3.293,3.273-3.213a15.184,15.184,0,0,1,11.6,5.563c.2.232.4.467.722.85v-5.978c-1.236-.176-2.465-.258-3.649-.534a15.351,15.351,0,0,1-11.951-14.942c-.024-3.238.035-3.326,3.285-3.217a15.254,15.254,0,0,1,11.529,5.515c.218.254.444.5.857.968,0-1.613.027-2.964-.024-4.312-.01-.256-.289-.541-.508-.745a15.227,15.227,0,0,1-.638-21.984c.463-.482.936-.954,1.414-1.421a1.238,1.238,0,0,1,1.871-.066c7.978,6.9,7.245,17.285,1.3,22.93a2.714,2.714,0,0,0-.665,1.633c-.1,1.178-.03,2.37-.03,3.556l.286.209a4.558,4.558,0,0,1,.4-.685c3.565-4.212,8.185-5.878,13.6-5.6.99.05,1.394.647,1.446,1.6.6,10.847-7.812,17.05-15.166,16.967a3.878,3.878,0,0,0-.487.063v5.879c.348-.392.616-.695.886-1,3.59-4.024,8.145-5.577,13.435-5.238.915.059,1.259.629,1.327,1.47a15.574,15.574,0,0,1-14.334,17.02l-1.321.12v5.473l.322.362a2.388,2.388,0,0,1,.271-.775c3.545-4.227,8.159-5.907,13.575-5.647a1.4,1.4,0,0,1,1.482,1.45c.7,10.7-7.452,17.018-14.9,17.111-.237,0-.475.042-.766.069v6.5c5.283-1.305,10.584-2.739,15.943-3.905a81.615,81.615,0,0,1,16.523-1.684v-11.542a16.758,16.758,0,0,1-7.248-1.666,15.707,15.707,0,0,1-8.558-15.474,1.425,1.425,0,0,1,1.549-1.477c5.695-.286,10.405,1.618,13.957,6.167a2.169,2.169,0,0,0,.317.25v-5.631c-1.18-.145-2.371-.2-3.521-.448a15.4,15.4,0,0,1-12.3-15c-.072-3.187,0-3.278,3.163-3.241a15.21,15.21,0,0,1,12.032,5.779c.154.185.3.374.6.738v-6.1c-1-.1-1.984-.129-2.945-.3A15.418,15.418,0,0,1,672.6-659.993c-.057-3.114.023-3.184,3.138-3.157a15.235,15.235,0,0,1,12.113,5.831c.133.161.264.323.4.48.018.021.065.017.232.055,0-1.377.026-2.726-.022-4.074a1.349,1.349,0,0,0-.481-.775c-6.078-5.616-7.318-16.029.8-23.3a1.372,1.372,0,0,1,2.108-.012,15.863,15.863,0,0,1,1.347,22.868,3.3,3.3,0,0,0-1.085,2.779c.081.8.016,1.614.016,2.6a6.724,6.724,0,0,0,.568-.536c3.579-4.419,8.267-6.227,13.866-5.918,1.017.056,1.407.615,1.465,1.561A15.563,15.563,0,0,1,692.231-644.6c-.311.022-.621.054-1,.086v6.044c.274-.294.461-.475.625-.674,3.594-4.357,8.284-6.092,13.827-5.777.956.054,1.318.656,1.378,1.544a15.579,15.579,0,0,1-15.336,17.022c-.139.006-.277.03-.488.053v5.55l.229.257a3.558,3.558,0,0,1,.352-.7c3.6-4.4,8.313-6.166,13.9-5.817.914.057,1.264.626,1.335,1.465a15.607,15.607,0,0,1-14.952,17.089c-.276.012-.55.044-.882.071v11.5a84.773,84.773,0,0,1,16.454,1.694c5.374,1.167,10.69,2.607,16.038,3.929v-6.435c-1.345-.189-2.679-.274-3.962-.573a15.287,15.287,0,0,1-11.83-14.487c-.023-.7-.032-1.408-.008-2.11.037-1.076.479-1.5,1.57-1.548,5.639-.246,10.338,1.632,13.871,6.145A4.575,4.575,0,0,0,723.735-609.915ZM724.966-672c-5.747,4.943-5.274,14.372.034,18.677C730.477-658.209,730.46-667.348,724.966-672Zm-70.421,18.7c5.388-4.98,5.746-13.7,0-18.665C649.328-667.58,648.791-658.441,654.545-653.3Zm72.091,16.571c7.215.432,13.632-6.061,13.078-13.156C732.1-650.542,725.822-643.219,726.636-636.73Zm13.084,23.084c-9.091-.332-14.047,8.221-13.034,13.207A12.629,12.629,0,0,0,739.72-613.646Zm.042-18c-6.712-1.052-14.721,7.094-13.048,13.183C733.757-618.043,740.275-624.6,739.762-631.648Zm-35.331-28.731c-6.94-.808-14.914,7.38-12.953,13.223A12.7,12.7,0,0,0,704.431-660.379Zm-16.148,13.192c.909-6.818-5.974-14.063-13.088-13.094C674.623-653.372,681.313-646.642,688.283-647.187ZM656.032-600.44c7.165.407,13.557-6.216,12.922-13.155C660.857-614.224,654.852-606.23,656.032-600.44Zm54.679-31.2c-.658,7.513,6.59,13.794,12.942,13.067C724.776-624.651,718.46-632.355,710.71-631.64ZM688.259-611.02c.994-6.7-5.842-14.051-13.032-13.136C674.723-617.727,680.35-610.823,688.259-611.02Zm16.179-13.2c-8.534-.612-14.178,7.854-12.984,13.189C698.441-610.586,705.172-617.38,704.437-624.22Zm-29.2-18.066c-.6,8.019,7.106,13.877,13.06,13.072C689.142-635.609,682.854-642.944,675.242-642.286Zm29.2.158c-8.633-.565-14.181,7.934-12.994,13.2A12.721,12.721,0,0,0,704.446-642.129Zm19.189,5.385c1.148-6.029-5.057-13.81-12.935-13.144C710.1-642.831,716.578-636.318,723.635-636.743Zm-12.942,23.1c-.888,6.733,6.891,14.547,12.969,13.107C724.562-607.409,717.936-614.141,710.693-613.638ZM669.009-650a12.618,12.618,0,0,0-10.758,5.243c-1.749,2.359-2.86,4.965-2.082,8.016C663-636.25,669.47-642.854,669.009-650Zm-12.838,31.54c8.372.081,13.542-7.636,12.734-13.229C661.888-632.481,655.129-625.5,656.17-618.457Zm33.514-45.015a13.194,13.194,0,0,0,.1-18.764C683.977-677.339,684.342-667.872,689.684-663.472Zm-36.77,26.7c1.269-6.484-6.25-14.175-12.809-13.1C639.582-642.239,646.646-636.239,652.915-636.776Zm-.011,36.318c1.38-6.365-6.1-14.046-12.783-13.133C639.242-606.976,646.3-599.721,652.9-600.458ZM640.09-631.682c-.442,8.048,6.972,13.755,12.842,13.114C654.006-625.2,647.052-632.342,640.09-631.682Z" transform="translate(753.06 1479.52)" fill="#fff"></path></g></svg>