<svg xmlns="http://www.w3.org/2000/svg" width="165" height="165" viewBox="0 0 165 165"><g id="Grupo_472" data-name="Grupo 472" transform="translate(-583 -764)"><path id="Caminho_150" data-name="Caminho 150" d="M11,0H154a11,11,0,0,1,11,11V154a11,11,0,0,1-11,11H11A11,11,0,0,1,0,154V11A11,11,0,0,1,11,0Z" transform="translate(583 764)" fill="#ff6f00"></path><g id="Grupo_128" data-name="Grupo 128" transform="translate(609.008 782.248)"><path id="Caminho_123" data-name="Caminho 123" d="M1407.431-632.139a2.069,2.069,0,0,0,.515,1.557,1.612,1.612,0,0,0,1.175.43h.051c.607-.012,1.628-.283,1.639-1.959,0-.348.008-.7.013-1.046.016-1.064.032-2.165-.038-3.251a5,5,0,0,0-.406-1.485c-.075-.192-.149-.384-.212-.576l-.108-.336h-1.828l-.113.326c-.066.19-.145.379-.224.568a4.7,4.7,0,0,0-.433,1.479c-.069,1-.056,2.02-.042,3C1407.426-633,1407.432-632.569,1407.431-632.139Z" transform="translate(-1325.205 638.806)" fill="#fff"></path><path id="Caminho_124" data-name="Caminho 124" d="M1261.33-415.331c-4.19-10.7-8.522-21.767-12.756-32.66a2.609,2.609,0,0,0-2.78-1.877h-.034c-5.912.035-11.924.03-17.738.026l-5.859,0h-9.079q-20.132,0-40.265-.009h-.01a2.362,2.362,0,0,0-2.582,1.506c-3.815,9.787-7.709,19.733-11.474,29.351q-2.844,7.264-5.686,14.529a2.044,2.044,0,0,0,0,1.927,2.021,2.021,0,0,0,1.763.727c1.411.021,2.844.017,4.23.015.775,0,1.549,0,2.325,0,.253,0,.507.016.8.035h0v1.33c0,1.309,0,2.58,0,3.85.009,1.832.51,2.334,2.33,2.334h89.543c1.886,0,2.376-.493,2.383-2.4.005-1.27,0-2.54,0-3.833v-1.282h.018c.272-.019.508-.036.734-.036q1.956-.006,3.913,0h1.957c1.25,0,2.106-.12,2.511-.714s.208-1.406-.234-2.534Zm-27.593-12.262-3.7-18.867,7.144,0c2.568,0,5.223.005,7.837-.015.44,0,.554.064.7.449,1.81,4.679,3.67,9.427,5.47,14.019l1.728,4.412Zm-22.668,3.522H1231l3.7,18.846h-23.629Zm-.03-3.517v-18.841c.2-.016.391-.028.58-.028q2.153,0,4.3,0c3.287,0,6.686,0,10.029-.022.615-.01.7.072.816.684.823,4.369,1.7,8.8,2.549,13.088q.478,2.415.954,4.829c.018.09.031.186.042.289Zm50.65,22.368h-23.572l-3.7-18.925h19.86Zm-8.635,3.516v4.021h-87.423V-401.7Zm-68.822-22.456-3.7,18.952h-23.573l7.417-18.952Zm4.1-3.413.566-2.921c.521-2.687,1.035-5.34,1.553-7.992l.2-1.011c.415-2.131.845-4.335,1.314-6.49a1.009,1.009,0,0,1,.329-.436c4.551-.036,9.178-.024,13.653-.014l1.65,0v18.86Zm-22.619.01q.026-.087.056-.165,1.455-3.715,2.912-7.429,2.1-5.358,4.2-10.718l.022-.056c.185-.478.225-.546.555-.546h.019c3.673.026,7.406.025,11.018.025h4.11l-3.7,18.889Zm18.233,22.342,3.692-18.841H1207.6v18.841Z" transform="translate(-1152.832 510.877)" fill="#fff"></path><path id="Caminho_125" data-name="Caminho 125" d="M1380.39-565.493h.067a15.431,15.431,0,0,0,15.332-15.381,15.38,15.38,0,0,0-15.286-15.384,15.379,15.379,0,0,0-10.93,4.462,15.265,15.265,0,0,0-4.544,10.874,15.27,15.27,0,0,0,4.544,10.912A15.225,15.225,0,0,0,1380.39-565.493Zm.022-27.452h.028a12.073,12.073,0,0,1,12.029,12.039,12.045,12.045,0,0,1-12.01,12.028h-.025a12.039,12.039,0,0,1-12.039-11.956,12,12,0,0,1,3.546-8.574A11.9,11.9,0,0,1,1380.412-592.945Z" transform="translate(-1296.51 609.998)" fill="#fff"></path><path id="Caminho_126" data-name="Caminho 126" d="M1324.5-550.568c.574.01,1.149.008,1.723.005l.757,0,.772,0,.794,0q.512,0,1.025-.007a1.633,1.633,0,0,0,1.783-1.71,1.606,1.606,0,0,0-1.738-1.637c-1.867-.03-3.563-.029-5.182,0a1.58,1.58,0,0,0-1.714,1.649A1.618,1.618,0,0,0,1324.5-550.568Z" transform="translate(-1267.862 581.341)" fill="#fff"></path><path id="Caminho_127" data-name="Caminho 127" d="M1477.664-553.911a1.74,1.74,0,0,0-1.256.5,1.626,1.626,0,0,0-.421,1.2,1.613,1.613,0,0,0,1.706,1.64c.346.011.693.014,1.038.014.26,0,.519,0,.773,0s.536,0,.788,0h0c.257,0,.515,0,.772,0,.6,0,1.213.007,1.823-.008a1.626,1.626,0,0,0,1.735-1.61,1.627,1.627,0,0,0-.408-1.213,1.714,1.714,0,0,0-1.248-.511C1481.267-553.951,1479.483-553.952,1477.664-553.911Z" transform="translate(-1371.639 581.344)" fill="#fff"></path><path id="Caminho_128" data-name="Caminho 128" d="M1407.47-480.394c0,.589-.006,1.2.007,1.8a1.623,1.623,0,0,0,1.7,1.78h.006a1.6,1.6,0,0,0,1.656-1.712c.032-1.613.033-3.309,0-5.185a1.632,1.632,0,0,0-1.639-1.738h-.028a1.637,1.637,0,0,0-1.692,1.778c-.014.579-.011,1.165-.007,1.731,0,.251,0,.5,0,.752h0Q1407.473-480.792,1407.47-480.394Z" transform="translate(-1325.245 534.969)" fill="#fff"></path><path id="Caminho_129" data-name="Caminho 129" d="M1341.077-519.365a1.7,1.7,0,0,0-1.727.017c-1.115.6-2.224,1.253-3.3,1.882l-1,.587c-1.461.85-1.163,1.872-.854,2.4a1.539,1.539,0,0,0,1.358.863,2.32,2.32,0,0,0,1.144-.351q.6-.349,1.213-.694c.981-.558,1.995-1.136,2.975-1.74a2.981,2.981,0,0,0,.772-.764c.048-.063.09-.119.127-.159l.126-.136,0-.185A1.9,1.9,0,0,0,1341.077-519.365Z" transform="translate(-1275.461 558.087)" fill="#fff"></path><path id="Caminho_130" data-name="Caminho 130" d="M1467.663-517a49.8,49.8,0,0,0,4.911,2.817.982.982,0,0,0,.433.089,2.223,2.223,0,0,0,1.617-.786,1.39,1.39,0,0,0,.116-1.018,1.732,1.732,0,0,0-.587-1.069c-1.213-.792-2.494-1.509-3.733-2.2q-.57-.319-1.138-.64a1.653,1.653,0,0,0-.427-.153c-.076-.02-.167-.043-.281-.078l-.27-.081-.2.195c-.069.066-.157.131-.247.2a1.857,1.857,0,0,0-.772.933A1.873,1.873,0,0,0,1467.663-517Z" transform="translate(-1365.581 558.447)" fill="#fff"></path><path id="Caminho_131" data-name="Caminho 131" d="M1369.529-494.678l-.147,0-.125.073a1.239,1.239,0,0,1-.128.059,1.636,1.636,0,0,0-.8.586c-1,1.63-1.966,3.233-2.805,4.906a1.723,1.723,0,0,0,.037,1.222,1.386,1.386,0,0,0,.622.822,1.653,1.653,0,0,0,.665.121,1.834,1.834,0,0,0,1.452-.573,54.017,54.017,0,0,0,2.849-4.89,1.449,1.449,0,0,0-.026-1.419A1.9,1.9,0,0,0,1369.529-494.678Z" transform="translate(-1296.777 541.221)" fill="#fff"></path><path id="Caminho_132" data-name="Caminho 132" d="M1368.341-619.845a1.809,1.809,0,0,0,1.436.624,1.457,1.457,0,0,0,.351-.039,1.832,1.832,0,0,0,.936-.759,2.665,2.665,0,0,1,.178-.218l.179-.185-.053-.252c-.024-.113-.038-.2-.049-.269a1.129,1.129,0,0,0-.12-.405q-.332-.584-.66-1.171c-.725-1.289-1.473-2.622-2.3-3.886a1.888,1.888,0,0,0-2.1-.357,1.93,1.93,0,0,0-.625,2.016A52.189,52.189,0,0,0,1368.341-619.845Z" transform="translate(-1296.776 630.767)" fill="#fff"></path><path id="Caminho_133" data-name="Caminho 133" d="M1335.028-593.137a56.545,56.545,0,0,0,4.883,2.855,1.511,1.511,0,0,0,.7.176,1.5,1.5,0,0,0,.8-.231,1.894,1.894,0,0,0,.835-1.677l-.012-.135-.061-.106c-.014-.024-.028-.057-.045-.095a1.53,1.53,0,0,0-.557-.731l-.032-.02c-1.6-.971-3.262-1.974-4.971-2.829a1.9,1.9,0,0,0-2,.733A1.887,1.887,0,0,0,1335.028-593.137Z" transform="translate(-1275.797 609.833)" fill="#fff"></path><path id="Caminho_134" data-name="Caminho 134" d="M1447.775-488.575q-.331-.579-.658-1.161c-.763-1.351-1.553-2.747-2.409-4.078a.976.976,0,0,0-.663-.385,2.014,2.014,0,0,0-1.385.181,1.835,1.835,0,0,0-.6,1.928c.834,1.634,1.806,3.314,2.888,4.993a1.729,1.729,0,0,0,1.39.595,1.552,1.552,0,0,0,.419-.053,1.767,1.767,0,0,0,.894-.8,1.986,1.986,0,0,1,.127-.176l.143-.162-.026-.215c-.015-.128-.022-.217-.027-.282A.835.835,0,0,0,1447.775-488.575Z" transform="translate(-1348.603 540.922)" fill="#fff"></path><path id="Caminho_135" data-name="Caminho 135" d="M1442.574-619.454a1.778,1.778,0,0,0,.859.242,1.841,1.841,0,0,0,1.552-1.1q.524-.916,1.055-1.83c.434-.75.868-1.5,1.3-2.255a4.639,4.639,0,0,0,.283-.641c.048-.124.1-.263.168-.425l.123-.3-.225-.229a3.8,3.8,0,0,1-.251-.3,1.661,1.661,0,0,0-1.039-.782,2.193,2.193,0,0,0-1.816.833c-.633.955-1.2,1.965-1.756,2.941-.252.446-.5.892-.762,1.334a1.989,1.989,0,0,0-.307,1.537A1.586,1.586,0,0,0,1442.574-619.454Z" transform="translate(-1348.425 630.861)" fill="#fff"></path><path id="Caminho_136" data-name="Caminho 136" d="M1468.789-590.368a.881.881,0,0,0,.4-.087c1.657-.845,3.368-1.833,5.087-2.936a1.877,1.877,0,0,0,.491-1.794,1.65,1.65,0,0,0-.735-.871,1.6,1.6,0,0,1-.142-.106l-.15-.139-.2.01c-.128.006-.217.006-.281.007a.779.779,0,0,0-.42.084q-.566.323-1.134.643c-1.387.785-2.822,1.6-4.193,2.467a1.015,1.015,0,0,0-.4.711,1.775,1.775,0,0,0,.182,1.268A2.14,2.14,0,0,0,1468.789-590.368Z" transform="translate(-1365.604 610.025)" fill="#fff"></path></g></g></svg>