<svg xmlns="http://www.w3.org/2000/svg" width="165" height="165" viewBox="0 0 165 165"><g id="Grupo_473" data-name="Grupo 473" transform="translate(-961.5 -764)"><path id="Caminho_302" data-name="Caminho 302" d="M11,0H154a11,11,0,0,1,11,11V154a11,11,0,0,1-11,11H11A11,11,0,0,1,0,154V11A11,11,0,0,1,11,0Z" transform="translate(961.5 764)" fill="#ff6f00"></path><g id="Grupo_127" data-name="Grupo 127" transform="translate(988.118 809.271)"><path id="Caminho_117" data-name="Caminho 117" d="M81.81-544.251c.138-.282.275-.564.415-.846a4.4,4.4,0,0,1,3.794-2.644c.467-.035.937-.038,1.406-.038q43.953,0,87.906,0a9.6,9.6,0,0,1,1.4.057,1.555,1.555,0,0,1,1.436,1.509,1.547,1.547,0,0,1-1.216,1.79,5.884,5.884,0,0,1-1.5.142q-17.538.011-35.076.006h-1.335v45.388h50.092c.016-.353.047-.732.047-1.112q0-21.219,0-42.437c0-1.59-.241-1.834-1.792-1.838s-3.1.015-4.655-.006c-1.343-.018-2.171-.714-2.167-1.768s.8-1.714,2.179-1.727c1.732-.017,3.465-.036,5.2.005a4.507,4.507,0,0,1,4.719,4.8q.018,25.116,0,50.232a4.536,4.536,0,0,1-4.786,4.853c-.252.008-.505,0-.758,0q-49.907,0-99.814.009c-1.6,0-3.138-.157-4.236-1.46a15.035,15.035,0,0,1-1.265-2.088Zm53.655-.024H87.224c-1.731,0-1.929.2-1.929,1.918q0,21.164,0,42.328v1.225h1.441q18.024,0,36.049,0a9.514,9.514,0,0,1,1.189.03,1.622,1.622,0,0,1,1.549,1.653,1.611,1.611,0,0,1-1.347,1.721,5.457,5.457,0,0,1-1.29.079q-18.133.005-36.266,0H85.294c0,.8,0,1.44,0,2.084.005,1.63.224,1.845,1.891,1.846h48.232v-3.93h-.827c-1.66,0-3.321.032-4.979-.021a1.691,1.691,0,0,1-1.753-1.8,1.716,1.716,0,0,1,1.781-1.655c.432-.025.866-.01,1.3-.01h4.527Zm3.571,52.893h48.186c.288,0,.632.092.853-.032.4-.223.977-.541,1.026-.885a20.923,20.923,0,0,0,.049-2.959H139.037Z" transform="translate(-81.81 554.629)" fill="#fff"></path><path id="Caminho_118" data-name="Caminho 118" d="M81.81-566.927a2.434,2.434,0,0,1,2.414-1.284q53.037.017,106.073.016a3.861,3.861,0,0,1,1.169.158,1.57,1.57,0,0,1,1.169,1.733,1.586,1.586,0,0,1-1.412,1.547,7.492,7.492,0,0,1-1.187.059q-52.82,0-105.641.016a2.666,2.666,0,0,1-2.586-1.161Z" transform="translate(-81.81 568.211)" fill="#fff"></path><path id="Caminho_119" data-name="Caminho 119" d="M270.361-484.33c0,1.8.014,3.6-.005,5.4-.014,1.294-.658,2.072-1.683,2.1-1.043.031-1.794-.812-1.8-2.125q-.028-5.451,0-10.9c.007-1.318.751-2.122,1.82-2.082,1.032.038,1.65.794,1.663,2.1C270.375-488,270.362-486.165,270.361-484.33Z" transform="translate(-204.914 517.472)" fill="#fff"></path><path id="Caminho_120" data-name="Caminho 120" d="M109.252-356.293c1.547,0,3.094-.023,4.64.007,1.226.023,1.932.67,1.946,1.7a1.716,1.716,0,0,1-1.886,1.781q-4.747.057-9.5,0a1.776,1.776,0,0,1-1.865-1.824,1.753,1.753,0,0,1,1.912-1.646C106.086-356.317,107.669-356.292,109.252-356.293Z" transform="translate(-95.634 427.238)" fill="#fff"></path><path id="Caminho_121" data-name="Caminho 121" d="M359.249-356.295c1.547,0,3.094-.021,4.64.007,1.214.022,1.961.679,2,1.676a1.821,1.821,0,0,1-2,1.808q-4.64.046-9.28,0c-1.272-.013-2-.737-1.966-1.812.028-1.02.736-1.649,1.971-1.671C356.156-356.316,357.7-356.3,359.249-356.295Z" transform="translate(-261.978 427.239)" fill="#fff"></path><path id="Caminho_122" data-name="Caminho 122" d="M217.469-484.471c0-1.8-.015-3.6.005-5.4.014-1.293.659-2.055,1.694-2.074,1.064-.02,1.784.789,1.79,2.116q.027,5.451,0,10.9c-.007,1.264-.707,2.064-1.724,2.088-1.062.025-1.746-.779-1.759-2.13C217.455-480.8,217.469-482.636,217.469-484.471Z" transform="translate(-172.054 517.474)" fill="#fff"></path></g></g></svg>