<svg xmlns="http://www.w3.org/2000/svg" width="165" height="165" viewBox="0 0 165 165"><g id="Grupo_478" data-name="Grupo 478" transform="translate(-1116 -3739.5)"><rect id="Ret&#xE2;ngulo_56" data-name="Ret&#xE2;ngulo 56" width="165" height="165" rx="11" transform="translate(1116 3739.5)" fill="#ff6f00"></rect><path id="Caminho_141" data-name="Caminho 141" d="M-885.4,181.045a2.735,2.735,0,0,0-1.3-2.187q-27.027-19.791-54.06-39.576c-1.6-1.169-2-1.169-3.587-.007l-4.866,3.561q-24.416,17.868-48.815,35.76a8.763,8.763,0,0,0-1.323,1.328c-.131.149-.26.3-.392.445v.871c.486.843.984,1.328,1.481,1.441a3.092,3.092,0,0,0,2.26-.85l6.08-4.45q22.889-16.755,45.764-33.529a2.377,2.377,0,0,1,3.164-.025q14.069,10.354,28.17,20.661l11.022,8.068q6.461,4.727,12.915,9.469c1.046.769,1.739.874,2.562.391A1.661,1.661,0,0,0-885.4,181.045Z" transform="translate(2141.744 3632.746)" fill="#fff"></path><path id="Caminho_142" data-name="Caminho 142" d="M-893.8,203.943a7.023,7.023,0,0,0-.089-1.264,1.783,1.783,0,0,0-1.679-1.447,1.781,1.781,0,0,0-1.4.427,2.615,2.615,0,0,0-.658,1.952q0,17.372,0,34.746v13.765l-1.083.237a2.078,2.078,0,0,1-.528.08l-6.7,0q-8.089,0-16.176.023a1.96,1.96,0,0,1-1.466-.521,2.157,2.157,0,0,1-.516-1.662q.013-6.169,0-12.3c0-1.4.007-2.8.018-4.2.028-3.275.056-6.662-.137-9.967a13.513,13.513,0,0,0-5.608-10.131,13.96,13.96,0,0,0-11.736-2.288c-6.427,1.657-10.588,7.213-10.6,14.153-.015,7.256-.025,15.837.017,24.465a2.478,2.478,0,0,1-.6,1.866,2.509,2.509,0,0,1-1.837.6c-4.9-.032-9.889-.031-14.715-.03l-7.023,0c-.269,0-.537-.016-.834-.034l-1.478-.077V203.775a8.19,8.19,0,0,0-.018-.834,1.852,1.852,0,0,0-1.8-1.713h-.1a1.8,1.8,0,0,0-1.855,1.611,10.162,10.162,0,0,0-.063,1.4q0,24.516,0,48.975v.247c0,.292,0,.548.016.8a1.87,1.87,0,0,0,2.07,1.975c8.758.013,19.656.03,29.928-.032a2.317,2.317,0,0,0,1.465-.55,3.138,3.138,0,0,0,.6-1.847c.034-5.49.034-11.07.033-16.467v-.305q0-5.954.013-11.91a10.355,10.355,0,0,1,3.181-7.529,10.045,10.045,0,0,1,7.456-2.793,10.188,10.188,0,0,1,9.769,10.418q.026,9.807.01,19.613l0,8.733c0,2.125.544,2.675,2.646,2.675q14.343,0,28.685,0c2.265,0,2.786-.522,2.787-2.788Q-893.792,228.7-893.8,203.943Z" transform="translate(2136.456 3616.598)" fill="#fff"></path></g></svg>