<svg xmlns="http://www.w3.org/2000/svg" width="165" height="165" viewBox="0 0 165 165"><g id="Grupo_479" data-name="Grupo 479" transform="translate(-1355 -3739.5)"><rect id="Ret&#xE2;ngulo_57" data-name="Ret&#xE2;ngulo 57" width="165" height="165" rx="11" transform="translate(1355 3739.5)" fill="#ff6f00"></rect><path id="Caminho_143" data-name="Caminho 143" d="M-1060.963,243.729a11.736,11.736,0,0,0-.644-9.33,11.159,11.159,0,0,0-11.2-6.493c-4.9.22-8.443,2.785-10.533,7.624l-.064.157a3.076,3.076,0,0,1-3.017,2.154c-14.9-.037-29.647-.028-43.369-.012a3.063,3.063,0,0,1-3.061-2.121,11.673,11.673,0,0,0-7.009-7.046,3.194,3.194,0,0,1-2.217-3.276c.048-2.3.049-4.616,0-6.893a3.4,3.4,0,0,1,2.384-3.566,11,11,0,0,0,6.687-6.638,3.559,3.559,0,0,1,3.694-2.472c14.418.026,28.669.027,42.376,0a3.585,3.585,0,0,1,3.688,2.456,11.92,11.92,0,0,0,6.767,6.771,11.5,11.5,0,0,0,9.227-.342,11.217,11.217,0,0,0,6.886-11.186c-.137-5-2.668-8.583-7.526-10.662a3.57,3.57,0,0,1-2.406-3.728c.068-2.413.068-4.529,0-6.469a3.5,3.5,0,0,1,2.447-3.637,11.766,11.766,0,0,0,7.5-12.213,11.819,11.819,0,0,0-10.662-10.69,11.868,11.868,0,0,0-12.221,7.458,3.637,3.637,0,0,1-3.67,2.484c-14.279-.033-28.531-.033-42.361,0a3.665,3.665,0,0,1-3.751-2.532,11.816,11.816,0,0,0-13.386-7.226,11.88,11.88,0,0,0-9.516,11.246,11.861,11.861,0,0,0,9.345,12.1,11.89,11.89,0,0,0,13.6-7.305,3.541,3.541,0,0,1,3.59-2.423c5.5.036,11.144.031,16.121.027l5.054,0,5.428,0c5.332,0,10.663,0,15.995-.023h.011a3.434,3.434,0,0,1,3.493,2.384,11.7,11.7,0,0,0,6.841,6.773,3.28,3.28,0,0,1,2.278,3.36c-.064,2.345-.064,4.7,0,6.99a3.26,3.26,0,0,1-2.3,3.357,11.694,11.694,0,0,0-6.817,6.8,3.448,3.448,0,0,1-3.486,2.362c-15.217-.031-29.156-.029-42.621,0a3.491,3.491,0,0,1-3.583-2.422,11.854,11.854,0,0,0-11-7.586,12.056,12.056,0,0,0-3.725.6,11.854,11.854,0,0,0-8.221,10.784,11.76,11.76,0,0,0,7.575,11.6,3.423,3.423,0,0,1,2.4,3.537c-.072,2.237-.072,4.5,0,6.722a3.424,3.424,0,0,1-2.4,3.537,11.89,11.89,0,0,0-7.539,12.284,11.921,11.921,0,0,0,10.621,10.631,11.84,11.84,0,0,0,12.288-7.515,3.52,3.52,0,0,1,3.584-2.421c14.181.034,28.475.034,42.49,0a3.582,3.582,0,0,1,3.662,2.484,11.884,11.884,0,0,0,6.612,6.668,11.832,11.832,0,0,0,9.343-.221A11.75,11.75,0,0,0-1060.963,243.729ZM-1144.028,176h-.044a7.969,7.969,0,0,1-5.7-2.379,8.024,8.024,0,0,1-2.259-5.769,7.927,7.927,0,0,1,2.4-5.637,8,8,0,0,1,5.791-2.237,7.916,7.916,0,0,1,5.616,2.42,8.043,8.043,0,0,1,2.215,5.8A7.951,7.951,0,0,1-1144.028,176Zm66.074-2.342a8,8,0,0,1-2.294-5.737,7.935,7.935,0,0,1,7.96-7.944,8.026,8.026,0,0,1,5.73,2.3,7.97,7.97,0,0,1,2.332,5.7,7.983,7.983,0,0,1-2.322,5.709A7.986,7.986,0,0,1-1072.24,176,7.982,7.982,0,0,1-1077.953,173.66Zm5.719,22.209h.017a7.967,7.967,0,0,1,5.7,2.339,7.993,7.993,0,0,1,2.3,5.731,7.959,7.959,0,0,1-2.36,5.675,8.008,8.008,0,0,1-5.662,2.279h-.09a7.943,7.943,0,0,1-5.653-2.38,8.028,8.028,0,0,1-2.258-5.77A7.937,7.937,0,0,1-1072.235,195.869Zm-77.594,13.581a8.06,8.06,0,0,1-2.2-5.823,7.9,7.9,0,0,1,2.46-5.583,8.106,8.106,0,0,1,5.839-2.172,7.939,7.939,0,0,1,7.72,8.181,7.916,7.916,0,0,1-2.421,5.62,8.043,8.043,0,0,1-5.609,2.219l-.194,0A7.906,7.906,0,0,1-1149.829,209.45Zm11.527,35.989a7.968,7.968,0,0,1-5.691,2.342,8,8,0,0,1-5.715-2.316,7.984,7.984,0,0,1-2.32-5.712,7.934,7.934,0,0,1,7.909-7.994,8.021,8.021,0,0,1,5.754,2.276,7.957,7.957,0,0,1,2.361,5.671A8,8,0,0,1-1138.3,245.44Zm66.053,2.343h-.1A7.941,7.941,0,0,1-1078,245.4a8.027,8.027,0,0,1-2.25-5.776,7.939,7.939,0,0,1,8.015-7.86h.026a7.971,7.971,0,0,1,5.69,2.345,8,8,0,0,1,2.291,5.737,7.954,7.954,0,0,1-2.366,5.67A8.015,8.015,0,0,1-1072.249,247.783Z" transform="translate(2545.976 3621.116)" fill="#fff"></path></g></svg>