<svg xmlns="http://www.w3.org/2000/svg" width="165" height="165" viewBox="0 0 165 165"><g id="Grupo_477" data-name="Grupo 477" transform="translate(-878 -3739.5)"><rect id="Ret&#xE2;ngulo_55" data-name="Ret&#xE2;ngulo 55" width="165" height="165" rx="11" transform="translate(878 3739.5)" fill="#ff6f00"></rect><g id="Grupo_286" data-name="Grupo 286" transform="translate(0.418)"><path id="Caminho_138" data-name="Caminho 138" d="M-626.367,162.944q-.48,9.81-.972,19.62l-2.693,53.166c-.061,1.215.04,1.845.351,2.171s.935.46,2.155.46l106.04,0c.183,0,.368,0,.551,0a1.854,1.854,0,0,0,1.345-.485,1.8,1.8,0,0,0,.374-1.34c-.038-.887-.112-1.791-.185-2.666l-.074-.914-3.4-43.795c-.142-1.826-.485-2.148-2.3-2.148h-25.881a.367.367,0,0,1-.365-.319l-.04-.277c-.022-.151-.038-.256-.043-.362l-.058-1.147q-.554-10.977-1.1-21.954c-.076-1.554-.525-1.979-2.084-1.982q-3.939-.006-7.877,0h-4.57a.368.368,0,0,1-.368-.368l0-2.994c0-2.109.007-4.165-.006-6.223a16.527,16.527,0,0,0-5.213-12.118,15.866,15.866,0,0,0-11.931-4.239,76.5,76.5,0,0,1-9.612,0,15.853,15.853,0,0,0-11.939,4.243,16.485,16.485,0,0,0-5.209,12.106c-.011,2.062-.008,4.124-.005,6.24l0,2.982a.367.367,0,0,1-.368.368H-619.1c-1.732,0-3.452,0-5.173,0C-625.861,160.972-626.29,161.378-626.367,162.944ZM-523.9,235.1a.368.368,0,0,1-.324.194h-7.807a.368.368,0,0,1-.324-.194.368.368,0,0,1,.018-.377l3.9-5.859a.381.381,0,0,1,.612,0l3.906,5.859A.368.368,0,0,1-523.9,235.1Zm-6.172-44.31c0-.117.007-.238.007-.365a.367.367,0,0,1,.368-.368h3.571a.369.369,0,0,1,.367.34l2.986,38.868a.368.368,0,0,1-.281.385l-.312.076a.351.351,0,0,1-.087.01.368.368,0,0,1-.307-.164c-.262-.393-.542-.78-.823-1.166a15.2,15.2,0,0,1-1.776-2.873,10.716,10.716,0,0,1-.631-3.305c-.022-.257-.043-.512-.069-.764q-1.4-13.775-2.763-27.557l-.236-2.374A6.052,6.052,0,0,1-530.07,190.786Zm-7.473-.6a.368.368,0,0,1,.27-.118h3.734a.369.369,0,0,1,.366.33l.3,2.915c.225,2.162.449,4.309.662,6.458.8,7.992,1.618,16.256,2.4,24.506a3.123,3.123,0,0,1-.41,1.831c-.783,1.26-1.626,2.508-2.518,3.829-.35.518-.712,1.053-1.087,1.615a.367.367,0,0,1-.305.163.405.405,0,0,1-.093-.012.369.369,0,0,1-.274-.328l-3.146-40.912A.371.371,0,0,1-537.543,190.181ZM-559.9,164.146a.369.369,0,0,1,.268-.115h3.69a.368.368,0,0,1,.367.349l1.116,22.2a.37.37,0,0,1-.1.272.367.367,0,0,1-.266.114h-3.5a.367.367,0,0,1-.367-.346l-1.307-22.2A.368.368,0,0,1-559.9,164.146Zm-7.462-.033a.37.37,0,0,1,.267-.114h3.729a.368.368,0,0,1,.367.346l1.309,22.207a.363.363,0,0,1-.1.274.368.368,0,0,1-.268.115h-3.925a.368.368,0,0,1-.368-.349l-1.113-22.207A.37.37,0,0,1-567.361,164.113Zm26.353,25.959a.367.367,0,0,1,.366.339l3.423,44.476a.365.365,0,0,1-.1.278.364.364,0,0,1-.269.118h-44.331a.366.366,0,0,1-.27-.118.365.365,0,0,1-.1-.277l3.419-44.476a.368.368,0,0,1,.367-.34Zm-43.717-51.619.187-.438a.369.369,0,0,1,.4-.218c.424.073.855.129,1.285.186a15.307,15.307,0,0,1,2.854.562c5.516,1.843,8.739,5.773,9.318,11.367a57.381,57.381,0,0,1,.126,7.32c-.028,1.11-.057,2.226-.057,3.348a.368.368,0,0,1-.368.368h-7.374a.368.368,0,0,1-.368-.368v-.4c0-.279,0-.552,0-.826-.014-1.029-.011-2.06-.008-3.09.005-2.293.012-4.664-.176-6.972a15.2,15.2,0,0,0-5.232-10.131,1.178,1.178,0,0,0-.249-.147c-.062-.031-.124-.062-.182-.1A.368.368,0,0,1-584.725,138.452Zm-5.885,1.233a1.9,1.9,0,0,1,2.2,0,12.873,12.873,0,0,1,6.618,10.464c.171,2.376.129,4.815.088,7.174-.019,1.077-.037,2.16-.037,3.252a.368.368,0,0,1-.368.368h-14.641a.367.367,0,0,1-.278-.127.592.592,0,0,1-.251-.438c.015-1.121.007-2.244,0-3.368a73.806,73.806,0,0,1,.232-7.908C-596.656,145.23-594.49,142.06-590.61,139.685Zm-17.586,9.3c.769-6.37,7.136-11.5,13.641-10.975a.367.367,0,0,1,.32.251.366.366,0,0,1-.107.392,16.049,16.049,0,0,0-5.585,9.314,27.818,27.818,0,0,0-.364,4.551c-.04,1.864-.032,3.773-.023,5.62q.005,1.2.007,2.408a.367.367,0,0,1-.368.368h-7.34a.367.367,0,0,1-.365-.318c-.01-.069-.021-.139-.035-.21a3.11,3.11,0,0,1-.063-.59c.02-1.09.015-2.182.008-3.274A60.579,60.579,0,0,1-608.2,148.982Zm-1.321,30.482c1.185.758,2.232,1.456,3.2,2.133a1.154,1.154,0,0,1,.418.887c.013,3.165.012,6.33.012,9.532v2a.368.368,0,0,1-.368.368h-7.437a.368.368,0,0,1-.368-.368v-2.032c0-3.185,0-6.34.011-9.494a1.159,1.159,0,0,1,.413-.887c.957-.672,2-1.372,3.2-2.139A.953.953,0,0,1-609.517,179.463Zm-13.943-15.1a.368.368,0,0,1,.368-.349h11.2a.368.368,0,0,1,.368.35l.019.34c.015.258.031.52.032.782q0,1.509,0,3.018c0,2.248-.007,4.5.02,6.743a2.038,2.038,0,0,1-1.054,2.012,27.734,27.734,0,0,0-3.6,2.436,2.568,2.568,0,0,0-.892,1.629c-.079,4.421-.06,8.92-.043,13.271l0,1.135c0,1.152.558,1.691,1.743,1.7,3.8.021,7.3.019,10.691,0,1.154-.007,1.693-.562,1.7-1.744l.007-1.715c.015-4.123.032-8.386-.048-12.574a2.716,2.716,0,0,0-.93-1.729A23,23,0,0,0-606.1,178.1c-.521-.337-1.059-.687-1.571-1.06a1.945,1.945,0,0,1-.779-1.365c-.035-2.9-.033-5.743-.029-8.75v-2.507a.367.367,0,0,1,.368-.368h26.044a.367.367,0,0,1,.368.368l0,1.574c0,1.219-.009,2.451.01,3.682a1.823,1.823,0,0,0,.681,1.482,1.287,1.287,0,0,0,1.164.181,1.526,1.526,0,0,0,1.135-1.677c-.007-1.217-.006-2.433,0-3.671v-1.6a.368.368,0,0,1,.368-.368h7.531a.368.368,0,0,1,.368.349l1.118,22.257a.37.37,0,0,1-.1.272.367.367,0,0,1-.266.114h-3.021c-2.346,0-4.629,0-6.911,0-1.565,0-1.976.393-2.1,1.987q-1.744,22.708-3.495,45.417a3.249,3.249,0,0,1-.055.355l-.04.211a.368.368,0,0,1-.363.305h-40.929a.367.367,0,0,1-.266-.114.369.369,0,0,1-.1-.272Z" transform="translate(1534.63 3635.321)" fill="#fff"></path><path id="Caminho_139" data-name="Caminho 139" d="M-527.549,222.533a1.473,1.473,0,0,0-1.48-1.6h0a1.51,1.51,0,0,0-1.487,1.614c-.011.211-.009.423-.006.635l0,4.4q0,4.735-.007,9.47a5.924,5.924,0,0,1-6.221,6.2c-1.009.009-2.016.005-3.025,0-3.92-.018-6.359-2.471-6.365-6.406q-.006-3.565,0-7.131,0-3.4,0-6.807c0-.728-.194-1.952-1.475-1.968a1.383,1.383,0,0,0-.993.362,2.164,2.164,0,0,0-.513,1.564c-.007,1.836,0,3.673,0,5.509v1.923c0,.753,0,1.506,0,2.259-.005,1.607-.011,3.215.012,4.822a8.707,8.707,0,0,0,7.365,8.657,28.379,28.379,0,0,0,4.973.192l.518-.01a8.669,8.669,0,0,0,8.5-7.262,29.7,29.7,0,0,0,.218-4.721c0-.493-.006-.986,0-1.477C-527.519,229.591-527.519,226.25-527.549,222.533Z" transform="translate(1513.21 3612.572)" fill="#fff"></path></g></g></svg>