<svg xmlns="http://www.w3.org/2000/svg" width="165" height="165" viewBox="0 0 165 165"><g id="Grupo_476" data-name="Grupo 476" transform="translate(-638 -3739.5)"><rect id="Ret&#xE2;ngulo_54" data-name="Ret&#xE2;ngulo 54" width="165" height="165" rx="11" transform="translate(638 3739.5)" fill="#ff6f00"></rect><path id="Caminho_144" data-name="Caminho 144" d="M-339.645,161.186a1.7,1.7,0,0,0-.175-1.362,1.732,1.732,0,0,0-1.3-.5c-.253-.007-.506-.005-.76,0l-.359,0H-438a.756.756,0,0,1-.729-.556l-.121-.431c-.086-.3-.165-.579-.232-.86l-1.46-6.18q-1.28-5.422-2.566-10.842c-.294-1.237-.552-1.44-1.839-1.443q-3.426-.009-6.853,0l-2.286,0c-.43-.011-.887,0-1.331-.006-1.056-.007-2.149-.013-3.214.022a1.237,1.237,0,0,0-1.3,1.255,1.262,1.262,0,0,0,1.31,1.267c.418.028.84.021,1.289.017.188,0,.378-.005.566-.005h10.711a.758.758,0,0,1,.737.583l15.358,65.276a.757.757,0,0,1-.378.839c-4.1,2.214-5.225,3.973-5.225,8.185l0,.944c0,.738-.007,1.476.009,2.213a7.331,7.331,0,0,0,5.921,7.116c.316.067.634.129.959.192l.459.089a.755.755,0,0,1,.538.418.757.757,0,0,1-.017.681c-2.7,5.032-2.175,9.557,1.477,12.745a9.372,9.372,0,0,0,11.63.53c4.093-2.908,4.792-7.153,2.2-13.359a.758.758,0,0,1,.068-.711.759.759,0,0,1,.63-.337h40.172a.757.757,0,0,1,.64.353.756.756,0,0,1,.043.729c-2.645,5.559-2.058,9.933,1.744,13a9.382,9.382,0,0,0,11.74.068c3.869-3.039,4.455-7.344,1.792-13.159a.757.757,0,0,1,.051-.723.756.756,0,0,1,.636-.348h6.853c1.332,0,1.883-.28,2.11-.515a.993.993,0,0,0,.243-.794c-.014-.494-.037-1.24-2.339-1.24l-79.187,0c-.271,0-.54,0-.811,0A4.83,4.83,0,0,1-433,219.374c-.011-.689-.009-1.376-.006-2.065l0-.869c0-4.016,1.8-5.807,5.838-5.807H-352c1.97,0,2.086-.1,2.492-2.037q.709-3.4,1.408-6.8.657-3.18,1.317-6.36l3.016-14.461Q-341.707,171.082-339.645,161.186ZM-363.2,226.891h.045a6.911,6.911,0,0,1,6.824,6.753,6.847,6.847,0,0,1-1.993,4.9,6.779,6.779,0,0,1-4.831,2.032h-.017a6.794,6.794,0,0,1-4.846-2.022,6.794,6.794,0,0,1-2-4.87A6.882,6.882,0,0,1-363.2,226.891Zm-56.883,0h.045a6.911,6.911,0,0,1,6.823,6.753,6.842,6.842,0,0,1-1.994,4.9,6.777,6.777,0,0,1-4.83,2.032h-.018a6.794,6.794,0,0,1-4.846-2.022,6.79,6.79,0,0,1-2-4.87A6.881,6.881,0,0,1-420.08,226.891Zm41.753-64.209a.757.757,0,0,1,.757-.757h16.145a.757.757,0,0,1,.568.256.758.758,0,0,1,.184.595l-1,8a.757.757,0,0,1-.751.663H-377.57a.757.757,0,0,1-.757-.757Zm-.537,12.228a.756.756,0,0,1,.757-.757h15.156a.757.757,0,0,1,.567.256.758.758,0,0,1,.184.595l-1,7.965a.756.756,0,0,1-.751.663h-14.16a.756.756,0,0,1-.757-.757Zm-21.448-.026v7.981a.756.756,0,0,1-.757.757h-14.142a.756.756,0,0,1-.75-.661l-1.019-7.981a.755.755,0,0,1,.182-.6.755.755,0,0,1,.567-.257h15.161A.756.756,0,0,1-400.312,174.883Zm-18-12.691a.757.757,0,0,1,.568-.256h16.123a.757.757,0,0,1,.757.757v7.982a.757.757,0,0,1-.757.757h-15.118a.757.757,0,0,1-.751-.662l-1-7.983A.756.756,0,0,1-418.316,162.193Zm-17.616,8.642-1.876-7.944a.755.755,0,0,1,.143-.644.755.755,0,0,1,.593-.287h15.222a.757.757,0,0,1,.751.661l1,7.945a.756.756,0,0,1-.183.6.757.757,0,0,1-.567.256H-435.2A.756.756,0,0,1-435.931,170.835Zm2.617,11.2c-.334-1.637-.723-3.238-1.135-4.934q-.245-1.008-.49-2.035a.756.756,0,0,1,.143-.643.757.757,0,0,1,.593-.288h13.877a.757.757,0,0,1,.751.662l1.016,8.054a.759.759,0,0,1-.184.595.756.756,0,0,1-.568.257l-4.814,0c-2.332,0-4.744-.011-7.112.023h-.055A1.834,1.834,0,0,1-433.314,182.038Zm3.124,13.212-1.878-7.982a.758.758,0,0,1,.144-.644.757.757,0,0,1,.593-.286H-418.8a.757.757,0,0,1,.751.662l1.008,7.981a.757.757,0,0,1-.184.6.756.756,0,0,1-.567.257h-11.658A.757.757,0,0,1-430.19,195.25Zm14.483,12.489a.757.757,0,0,1-.567.256H-426.59a.756.756,0,0,1-.736-.583l-1.877-7.961a.753.753,0,0,1,.143-.643.755.755,0,0,1,.593-.287h11.188a.757.757,0,0,1,.751.662l1,7.961A.757.757,0,0,1-415.707,207.739Zm1.27-12.591-1.019-7.978a.756.756,0,0,1,.182-.6.758.758,0,0,1,.567-.257h14.1a.756.756,0,0,1,.757.757v7.978a.756.756,0,0,1-.757.757h-13.076A.756.756,0,0,1-414.437,195.149Zm15.119,12.112a.757.757,0,0,1-.757.757h-12.089a.757.757,0,0,1-.751-.661l-1.022-8.011a.758.758,0,0,1,.183-.6.755.755,0,0,1,.567-.257h13.111a.757.757,0,0,1,.757.757Zm16.769.011a.756.756,0,0,1-.757.757h-12.562a.757.757,0,0,1-.757-.757V199.3a.757.757,0,0,1,.757-.757h12.562a.756.756,0,0,1,.757.757Zm.526-12.218a.756.756,0,0,1-.757.757h-13.559a.757.757,0,0,1-.757-.757v-7.969a.757.757,0,0,1,.757-.757h13.559a.756.756,0,0,1,.757.757Zm.49-12.16a.756.756,0,0,1-.757.757h-14.593a.756.756,0,0,1-.757-.757v-8.014a.757.757,0,0,1,.757-.757h14.593a.757.757,0,0,1,.757.757Zm.525-12.218a.756.756,0,0,1-.757.757h-15.591a.756.756,0,0,1-.757-.757v-7.969a.756.756,0,0,1,.757-.757h15.591a.757.757,0,0,1,.757.757Zm14.765,36.663a.757.757,0,0,1-.751.663h-12.1a.757.757,0,0,1-.757-.757v-7.995a.757.757,0,0,1,.757-.757H-366a.754.754,0,0,1,.567.256.755.755,0,0,1,.184.595Zm1.516-12.165a.756.756,0,0,1-.751.662H-378.6a.757.757,0,0,1-.757-.757v-8.014a.757.757,0,0,1,.757-.757h14.127a.755.755,0,0,1,.568.257.76.76,0,0,1,.183.595Zm12.851,12.208a.757.757,0,0,1-.741.6h-10.273a.755.755,0,0,1-.567-.257.759.759,0,0,1-.183-.595l1-7.955a.756.756,0,0,1,.751-.663h10.928a.756.756,0,0,1,.587.279.756.756,0,0,1,.154.631Zm2.529-12.157a.757.757,0,0,1-.741.6h-11.279a.754.754,0,0,1-.567-.256.755.755,0,0,1-.184-.595l.993-7.976a.757.757,0,0,1,.751-.663h11.945a.759.759,0,0,1,.587.279.76.76,0,0,1,.154.632Zm2.542-12.194a.757.757,0,0,1-.741.6h-12.3a.758.758,0,0,1-.568-.257.756.756,0,0,1-.183-.595l1-7.965a.756.756,0,0,1,.751-.662h12.955a.756.756,0,0,1,.587.28.753.753,0,0,1,.154.631Zm1.251-11.543c-2.791.022-5.582.026-8.409.026h-4.37a.757.757,0,0,1-.567-.256.759.759,0,0,1-.183-.6l1.015-8.042a.756.756,0,0,1,.751-.662h13.971a.758.758,0,0,1,.586.279.756.756,0,0,1,.154.631l-.335,1.625c-.406,1.967-.807,3.91-1.238,5.847A1.626,1.626,0,0,1-345.554,171.488Z" transform="translate(1120.921 3630.092)" fill="#fff"></path></g></svg>