<svg xmlns="http://www.w3.org/2000/svg" xmlns:xlink="http://www.w3.org/1999/xlink" width="165" height="165" viewBox="0 0 165 165"><defs><clipPath id="clip-path"><rect id="Ret&#xE2;ngulo_61" data-name="Ret&#xE2;ngulo 61" width="79.695" height="79.695" fill="#fff"></rect></clipPath></defs><g id="Grupo_480" data-name="Grupo 480" transform="translate(-490 -3756)"><rect id="Ret&#xE2;ngulo_51" data-name="Ret&#xE2;ngulo 51" width="165" height="165" rx="11" transform="translate(490 3756)" fill="#ff6f00"></rect><g id="Grupo_152" data-name="Grupo 152" transform="translate(533 3799)"><g id="Grupo_151" data-name="Grupo 151" clip-path="url(#clip-path)"><path id="Caminho_172" data-name="Caminho 172" d="M53.416,41.85l-8.753-5.341a1.8,1.8,0,0,0-2.023.1l-6.2,4.662-6.6-3.4a1.8,1.8,0,0,0-1.418-.1L17.88,41.44,9.813,37.5a1.8,1.8,0,0,0-1.709.068L.884,41.837A1.8,1.8,0,0,0,0,43.388C0,63.875,12.175,80.543,27.14,80.543S54.28,63.875,54.28,43.388a1.8,1.8,0,0,0-.863-1.538M27.14,76.939C14.4,76.939,4,62.437,3.615,44.41L9.1,41.161l7.869,3.846a1.8,1.8,0,0,0,1.384.083l10.519-3.663L35.8,44.991a1.8,1.8,0,0,0,1.907-.162l6.125-4.606,6.835,4.17C50.291,62.43,39.881,76.939,27.14,76.939" transform="translate(0 -0.847)" fill="#fff"></path><path id="Caminho_173" data-name="Caminho 173" d="M12.129,48.6a1.8,1.8,0,0,0-3.575.459,35.581,35.581,0,0,0,5.915,15.962,1.8,1.8,0,1,0,2.929-2.1A31.929,31.929,0,0,1,12.129,48.6" transform="translate(-0.199 -1.099)" fill="#fff"></path><path id="Caminho_174" data-name="Caminho 174" d="M27.514,12.263a3.2,3.2,0,1,0,3.2-3.2,3.208,3.208,0,0,0-3.2,3.2" transform="translate(-0.643 -0.212)" fill="#fff"></path><path id="Caminho_175" data-name="Caminho 175" d="M9.753,30.778A1.8,1.8,0,0,0,13.3,30.16a8.94,8.94,0,0,1,4.736-9.442,1.8,1.8,0,0,0,.6-2.724,8.8,8.8,0,0,1-1.906-5.5A8.9,8.9,0,0,1,25.625,3.6H29.1A8.9,8.9,0,0,1,37.993,12.5a8.8,8.8,0,0,1-1.906,5.5,1.8,1.8,0,0,0,.6,2.724,8.954,8.954,0,0,1,4.829,7.106,1.8,1.8,0,0,0,3.589-.334,12.612,12.612,0,0,0-5.075-8.932,12.283,12.283,0,0,0,1.488-4.7h1.837a1.8,1.8,0,1,0,0-3.6H41.392A12.514,12.514,0,0,0,29.1,0H25.625a12.51,12.51,0,0,0-12.5,12.5A12.358,12.358,0,0,0,14.7,18.557,12.588,12.588,0,0,0,9.753,30.778" transform="translate(-0.224 0)" fill="#fff"></path><path id="Caminho_176" data-name="Caminho 176" d="M79.947,49.609l-5.679-3.362a1.807,1.807,0,0,0-1.71-.068l-6.2,3.031-4.433-1.543a1.8,1.8,0,0,0-1.186,3.4l5.143,1.791a1.8,1.8,0,0,0,1.384-.083l6-2.935,3.946,2.335C76.838,66.048,68.856,77.166,59.1,77.166a13.544,13.544,0,0,1-7.687-2.473,1.8,1.8,0,0,0-2.023,2.984,17.081,17.081,0,0,0,9.71,3.094c11.984,0,21.733-13.284,21.733-29.612a1.8,1.8,0,0,0-.884-1.551" transform="translate(-1.135 -1.075)" fill="#fff"></path></g></g></g></svg>