<svg xmlns="http://www.w3.org/2000/svg" width="165" height="165" viewBox="0 0 165 165"><g id="Grupo_475" data-name="Grupo 475" transform="translate(-400 -3739.5)"><rect id="Ret&#xE2;ngulo_51" data-name="Ret&#xE2;ngulo 51" width="165" height="165" rx="11" transform="translate(400 3739.5)" fill="#ff6f00"></rect><path id="Caminho_140" data-name="Caminho 140" d="M-778.437,246.99v-5.553h-1.517q-13.479,0-26.958,0c-2.213,0-2.472-.258-2.472-2.423q0-32.955,0-65.909c0-2.125.31-2.431,2.472-2.431h29.021c2.016,0,2.336.314,2.337,2.292q0,9.674,0,19.347v1.46h22.784v-1.566q0-13.737,0-27.473c0-2.318.249-2.557,2.613-2.559h2.227v-6.749c0-2.465.183-2.649,2.627-2.649q17.155,0,34.309,0c2.054,0,2.291.24,2.3,2.307,0,2.312,0,4.624,0,7.091,1.026,0,1.916-.007,2.806,0,1.637.017,2.038.417,2.039,2.075q.007,14.318,0,28.634v54.2c1.045,0,1.974,0,2.9,0,1.62,0,2.308.416,2.333,1.391.026,1.007-.629,1.424-2.259,1.424h-37.018q-40.888,0-81.775,0c-1.048,0-2.3.257-2.464-1.331-.107-1.048.665-1.478,2.484-1.482.731,0,1.462-.005,2.192-.018a3.7,3.7,0,0,0,.548-.121V164.861c0-2.521.167-2.686,2.72-2.686h2.142v-4.4c0-1.074-.016-2.15.006-3.224.029-1.391.389-1.76,1.783-1.768,2.923-.018,5.847-.006,8.77-.006q13.221,0,26.442,0c1.883,0,2.225.352,2.229,2.276,0,2.314,0,4.628,0,7.121,1.068,0,2.041-.019,3.013,0,1.309.032,1.8.487,1.807,1.8q.025,11.673.008,23.346c0,.981-.351,1.761-1.439,1.745s-1.385-.819-1.385-1.792q.008-10.319,0-20.637v-1.579h-43.162V246.99Zm42.544-46.48c-.033.391-.067.642-.073.895-.072,2.76-.116,2.8-2.869,2.8h-36.621v42.8h6.094v-1.466q0-8.771,0-17.541c0-1.824.375-2.21,2.168-2.213q6.772-.012,13.543,0c1.9,0,2.252.356,2.253,2.256q.006,8.771,0,17.541v1.433h6.19v-35.5c0-.387-.131-.857.04-1.143.315-.523.738-1.191,1.248-1.337.806-.231,1.353.382,1.5,1.211.08.445.082.9.117,1.328h12.512V200.511Zm29.14,46.507V165.075h-43.07v28.71h4.618v-1.442q0-9.671,0-19.342c0-2,.321-2.326,2.3-2.326q14.507,0,29.014,0c2.217,0,2.517.3,2.517,2.523q0,32.817,0,65.635c0,2.371-.226,2.605-2.55,2.605q-13.411,0-26.821,0H-742.3v5.58Zm-59.7-18.333v18.308h12.121V228.685ZM-809.145,162.1h33.435V155.68h-33.435Zm97.542.014v-6.415h-33.415v6.415Zm-70.248,34.622v4.539h42.942v-4.539Zm-12.1-10.3h-12.537v11.133h12.537Zm79.7.015h-12.534v11.107h12.534Zm-79.725,39.279V214.592h-12.491v11.134Zm3.011-11.149v11.095h12.516V214.577Zm61.177,11.125V214.6h-12.523v11.1Zm15.539-11.111h-12.531v11.1h12.531Zm-79.7-14.03h-12.539v11.047h12.539Zm79.677-.006h-12.488v11.059h12.488Zm-79.726-17.061v-9.93h-12.477v9.93Zm15.5,0v-9.879h-12.471v9.879Zm48.72,0v-9.911h-12.5v9.911Zm15.49-.009v-9.894h-12.473v9.894Zm-79.673,55.07v-9.868h-12.527v9.868Zm67.169-.033H-714.3v-9.855h-12.493ZM-791,228.668v9.877h12.516v-9.877Zm61.25.019H-742.3v9.858h12.549Zm-48.7-34.838v-7.409h-12.521v11.114h6.182c0-.637-.01-1.187,0-1.737.034-1.551.447-1.956,2.019-1.966C-781.364,193.843-779.956,193.85-778.452,193.85Zm36.184-7.43v7.431c1.6,0,3.1.012,4.6,0a1.488,1.488,0,0,1,1.69,1.647c.019.671,0,1.344,0,2.061h6.194V186.42Zm-48.719,14.1v11.089h12.5v-7.4c-1.509,0-2.918.011-4.327,0-1.555-.015-1.948-.421-1.979-2.01-.011-.54,0-1.08,0-1.68Z" transform="translate(1242.873 3619.82)" fill="#fff"></path></g></svg>