<svg width="129" height="65" viewBox="0 0 129 65" fill="none" xmlns="http://www.w3.org/2000/svg">
<path fill-rule="evenodd" clip-rule="evenodd" d="M9.85988 14.7898C9.85988 17.5122 7.65238 19.7197 4.92994 19.7197C2.2075 19.7197 0 17.5122 0 14.7898C0 12.0674 2.2075 9.85986 4.92994 9.85986C7.65238 9.85986 9.85988 12.0674 9.85988 14.7898Z" fill="#FF6F00"/>
<path d="M54.8744 11.5216C57.5102 10.4299 58.7618 7.40816 57.6701 4.77243C56.5783 2.1367 53.5566 0.88506 50.9209 1.97681C48.2851 3.06857 47.0335 6.09029 48.1252 8.72603C49.217 11.3618 52.2387 12.6134 54.8744 11.5216Z" fill="#FF6F00"/>
<path fill-rule="evenodd" clip-rule="evenodd" d="M30.4015 60.3917C30.4015 62.8887 28.3769 64.9108 25.8824 64.9108C23.3879 64.9108 21.3633 62.8887 21.3633 60.3917C21.3633 57.8947 23.3854 55.8726 25.8824 55.8726C28.3794 55.8726 30.4015 57.8947 30.4015 60.3917Z" fill="#FF6F00"/>
<path fill-rule="evenodd" clip-rule="evenodd" d="M31.5126 16.6651C31.5126 12.8887 33.8525 9.68716 37.109 8.51516C34.6411 5.32841 30.8589 3.28662 26.6125 3.28662C19.1759 3.28662 13.1484 9.5422 13.1484 17.2548C13.1484 24.9674 19.1782 31.2229 26.6125 31.2229C31.2734 31.2229 35.3801 28.7635 37.7981 25.0288C34.1888 24.0853 31.5126 20.7044 31.5126 16.6651Z" fill="#FF6F00"/>
<path fill-rule="evenodd" clip-rule="evenodd" d="M39.6741 8.21655C38.6779 8.21655 37.7261 8.39082 36.8359 8.70008C38.7667 11.0907 39.9281 14.1244 39.9281 17.4306C39.9281 20.3072 39.0527 22.9776 37.5535 25.1989C38.2341 25.3707 38.9418 25.4713 39.6741 25.4713C44.4603 25.4713 48.3391 21.608 48.3391 16.8439C48.3391 12.0799 44.4579 8.21901 39.6741 8.21901V8.21655Z" fill="#FF6F00"/>
<path fill-rule="evenodd" clip-rule="evenodd" d="M24.8588 43.044C26.5223 41.2538 29.0847 40.8057 31.2013 41.7361C31.3913 39.0983 30.4316 36.4021 28.3418 34.4609C24.6834 31.0632 18.9644 31.2751 15.5666 34.931C12.1663 38.5868 12.3782 44.3081 16.0367 47.7057C18.3286 49.8345 21.4317 50.5457 24.2669 49.8807C22.9078 47.7837 23.0807 44.9584 24.8588 43.044Z" fill="#FF6F00"/>
<path fill-rule="evenodd" clip-rule="evenodd" d="M32.7984 42.9207C32.3473 42.4856 31.8401 42.1501 31.3071 41.9045C31.1692 43.8835 30.4142 45.8283 29.0141 47.3964C27.7986 48.7578 26.2699 49.6403 24.6523 50.0366C24.8884 50.4159 25.1666 50.7732 25.4985 51.0941C27.6677 53.1922 31.0617 53.0609 33.0789 50.8048C35.0938 48.5488 34.9699 45.0188 32.7984 42.9207Z" fill="#FF6F00"/>
<path d="M53.3996 41.3947V32.9605H48.4766V31.3052H61.6002V32.9605H56.6344V41.3947H53.3963H53.3996Z" fill="white"/>
<path d="M64.9414 41.3948V31.302H76.5184V32.9573H68.1795V35.4846H72.6517V37.0576H68.1795V39.7363H76.5612V41.3916H64.9414V41.3948Z" fill="white"/>
<path d="M86.1617 31.2229C87.659 31.2229 88.7285 31.2394 89.3735 31.2788C90.4101 31.3611 91.1966 31.5355 91.733 31.8054C92.2957 32.0785 92.6577 32.4109 92.819 32.8025C92.9802 33.1908 93.0625 33.6844 93.0625 34.28H89.8046V33.8753C89.8046 33.4968 89.6927 33.2369 89.4689 33.0954C89.2057 32.9144 88.5311 32.8255 87.4451 32.8255H86.1189C84.8355 32.8255 84.0029 32.9144 83.6278 33.0954C83.427 33.1842 83.2822 33.306 83.1934 33.4541C83.1045 33.6022 83.0618 33.8226 83.0618 34.1188C83.0914 34.4545 83.1375 34.698 83.2066 34.8461C83.2757 34.9974 83.4435 35.1126 83.7133 35.1982C83.9338 35.2673 84.207 35.3232 84.5262 35.3594C84.8487 35.3989 85.2337 35.4252 85.6747 35.4417C86.1156 35.4614 86.5303 35.4779 86.9284 35.4943C88.2645 35.547 89.3669 35.6095 90.2357 35.6852C91.1045 35.7642 91.7692 35.9057 92.2299 36.113C92.5096 36.2479 92.7334 36.4092 92.8946 36.6001C93.0559 36.7876 93.1711 36.9851 93.2402 37.1924C93.3126 37.3997 93.3554 37.5774 93.3718 37.7288C93.385 37.8802 93.4047 38.1303 93.4277 38.4857C93.4277 39.0451 93.2961 39.542 93.0296 39.9764C92.7663 40.4108 92.3813 40.7399 91.8745 40.9636C91.0847 41.3125 89.4722 41.4902 87.0403 41.4902H85.826C84.7466 41.4902 83.8186 41.454 83.0354 41.3849C82.2555 41.3125 81.5875 41.1381 81.0412 40.8583C80.6397 40.651 80.3436 40.4141 80.1593 40.1442C79.975 39.8777 79.8631 39.6013 79.8203 39.3215C79.7808 39.0352 79.7578 38.6667 79.7578 38.2093H82.9762C82.9762 38.3277 82.9597 38.4199 82.9334 38.4923C82.9565 38.8049 83.0025 39.0418 83.0683 39.2031C83.1309 39.3643 83.2592 39.4959 83.4501 39.598C83.6673 39.7164 83.9536 39.7954 84.309 39.8349C84.6677 39.8744 85.1745 39.904 85.8293 39.9172C86.1452 39.9172 86.3756 39.927 86.527 39.9501C87.3497 39.927 87.9683 39.9007 88.383 39.8711C88.7976 39.8382 89.1431 39.7757 89.4229 39.6802C89.9198 39.4959 90.1699 39.0747 90.1699 38.4166C90.1699 37.9526 90.0119 37.6169 89.6993 37.4162C89.5841 37.3536 89.4327 37.301 89.255 37.2615C89.0773 37.222 88.8963 37.1924 88.7153 37.1792C88.5343 37.1628 88.304 37.1496 88.0276 37.1397C87.7478 37.1299 87.4385 37.12 87.0897 37.1101C86.4908 37.0937 85.9248 37.0772 85.3949 37.0608C84.8618 37.0476 84.3583 37.0213 83.8779 36.9851C83.4007 36.9489 82.9236 36.8864 82.4497 36.8008C81.9791 36.7119 81.5842 36.5968 81.2683 36.452C80.3831 36.0637 79.9092 35.3265 79.8532 34.2439C79.8532 33.1118 80.2778 32.3253 81.1334 31.8745C82.0186 31.4533 83.7002 31.2427 86.1716 31.2427L86.1617 31.2229Z" fill="white"/>
<path d="M103.087 31.2229C104.584 31.2229 105.654 31.2394 106.299 31.2788C107.335 31.3611 108.122 31.5355 108.658 31.8054C109.221 32.0785 109.583 32.4109 109.744 32.8025C109.905 33.1908 109.984 33.6844 109.984 34.28H106.726V33.8753C106.726 33.4968 106.615 33.2369 106.391 33.0954C106.128 32.9144 105.453 32.8255 104.367 32.8255H103.037C101.754 32.8255 100.925 32.9144 100.55 33.0954C100.349 33.1842 100.204 33.306 100.115 33.4541C100.026 33.6022 99.9836 33.8226 99.9836 34.1188C100.013 34.4545 100.063 34.698 100.128 34.8461C100.194 34.9974 100.365 35.1126 100.635 35.1982C100.856 35.2673 101.126 35.3232 101.451 35.3594C101.774 35.3989 102.156 35.4252 102.597 35.4417C103.037 35.4614 103.455 35.4779 103.85 35.4943C105.186 35.547 106.289 35.6095 107.158 35.6852C108.026 35.7642 108.691 35.9057 109.152 36.113C109.432 36.2479 109.655 36.4092 109.817 36.6001C109.978 36.7876 110.093 36.9851 110.165 37.1924C110.238 37.3997 110.281 37.5774 110.294 37.7288C110.307 37.8802 110.327 38.1303 110.35 38.4857C110.35 39.0451 110.218 39.542 109.951 39.9764C109.688 40.4108 109.303 40.7399 108.796 40.9636C108.007 41.3125 106.394 41.4902 103.962 41.4902H102.748C101.669 41.4902 100.737 41.454 99.9573 41.3849C99.1741 41.3125 98.5094 41.1381 97.9631 40.8583C97.5616 40.651 97.2687 40.4141 97.0845 40.1442C96.9002 39.8777 96.785 39.6013 96.7422 39.3215C96.7027 39.0352 96.6797 38.6667 96.6797 38.2093H99.9014C99.9014 38.3277 99.8882 38.4199 99.8586 38.4923C99.8849 38.8049 99.9277 39.0418 99.9935 39.2031C100.056 39.3643 100.184 39.4959 100.375 39.598C100.589 39.7164 100.879 39.7954 101.237 39.8349C101.596 39.8744 102.103 39.904 102.758 39.9172C103.074 39.9172 103.304 39.927 103.455 39.9501C104.278 39.927 104.897 39.9007 105.311 39.8711C105.726 39.8382 106.072 39.7757 106.351 39.6802C106.848 39.4959 107.098 39.0747 107.098 38.4166C107.098 37.9526 106.94 37.6169 106.628 37.4162C106.509 37.3536 106.361 37.301 106.183 37.2615C106.006 37.222 105.825 37.1924 105.644 37.1792C105.463 37.1628 105.232 37.1496 104.956 37.1397C104.68 37.1299 104.367 37.12 104.018 37.1101C103.419 37.0937 102.853 37.0772 102.32 37.0608C101.79 37.0476 101.284 37.0213 100.806 36.9851C100.326 36.9489 99.8487 36.8864 99.3781 36.8008C98.9076 36.7119 98.5127 36.5968 98.1967 36.452C97.3115 36.0637 96.8376 35.3265 96.7784 34.2439C96.7784 33.1118 97.2029 32.3253 98.0585 31.8745C98.9438 31.4533 100.622 31.2427 103.097 31.2427L103.087 31.2229Z" fill="white"/>
<path d="M118.507 31.302H123.249L129.001 41.3948H125.697L124.618 39.4961H117.316L116.233 41.3948H112.883L116.749 34.3986L118.503 31.302H118.507ZM118.033 38.0317H123.851L120.952 32.7697H120.932L118.033 38.0317Z" fill="white"/>
</svg>
