<svg xmlns="http://www.w3.org/2000/svg" width="108" height="108.492" viewBox="0 0 108 108.492"><g id="Grupo_239" data-name="Grupo 239" transform="translate(-855.5 -3738.508)"><circle id="Elipse_18" data-name="Elipse 18" cx="54" cy="54" r="54" transform="translate(855.5 3738.508)" fill="#fff"></circle><g id="Grupo_109" data-name="Grupo 109" transform="translate(880.274 3762.588)"><path id="Caminho_87" data-name="Caminho 87" d="M1248.106,1529.087a1.1,1.1,0,0,0,.109-.054,25.237,25.237,0,0,1,7.926-2.934,1.13,1.13,0,0,0-.4-2.223,27.482,27.482,0,0,0-8.592,3.167,12.313,12.313,0,0,0-4.151,3.413c-1.766,2.222-3.675,6.148-2.751,12.246a7.492,7.492,0,0,1-.422,3.712l-5.241,6.161a1.139,1.139,0,0,0-.2.331,2.854,2.854,0,0,0,.177,2.382,2.653,2.653,0,0,0,2.122,1.162l2.61.538a12.4,12.4,0,0,1,1.132,3.732,19.956,19.956,0,0,1-.3,4.143c-.517,1.451-.84,4.151,1.076,5.569a1.126,1.126,0,0,0,.28.151l.023.012c1.191.62,3.615,1.252,10.908-.239a16.8,16.8,0,0,1,1.083,4.771,1.13,1.13,0,0,0,1.121,1,1.116,1.116,0,0,0,.133-.008,1.13,1.13,0,0,0,.99-1.254c-.581-4.951-1.688-6.31-2.014-6.609a1.133,1.133,0,0,0-1-.272c-5.177,1.113-8.791,1.329-10.177.608l-.085-.044c-.941-.845-.191-2.969-.184-2.988a1.144,1.144,0,0,0,.053-.189,24.953,24.953,0,0,0,.372-3.448l3.285.055H1246a1.13,1.13,0,0,0,.018-2.259l-3.462-.058a17.906,17.906,0,0,0-1.483-4.18,1.13,1.13,0,0,0-.777-.591l-3.221-.665a1.135,1.135,0,0,0-.135-.019.948.948,0,0,1-.469-.121.535.535,0,0,1-.007-.24l5.122-6.021a1.087,1.087,0,0,0,.075-.1c1.177-1.738.863-4.934.823-5.293,0-.015,0-.031-.006-.046C1240.951,1532.381,1247.817,1529.215,1248.106,1529.087Z" transform="translate(-1234.199 -1515.774)" fill="#ff6f00"></path><path id="Caminho_88" data-name="Caminho 88" d="M1409.865,1660.17a1.13,1.13,0,0,0-1.528.468,39.592,39.592,0,0,0-3.185,8.776,1.145,1.145,0,0,0-.025.175,51.269,51.269,0,0,0,.964,11.066l1.117-.172,1.111-.208a49.815,49.815,0,0,1-.942-10.455,37.755,37.755,0,0,1,2.956-8.122A1.13,1.13,0,0,0,1409.865,1660.17Z" transform="translate(-1366.471 -1621.185)" fill="#ff6f00"></path><path id="Caminho_89" data-name="Caminho 89" d="M1368.517,1502.574l-3.816-.628a13.729,13.729,0,0,0-.934-2.263l2.247-3.167a1.129,1.129,0,0,0-.123-1.452l-3.407-3.407a1.13,1.13,0,0,0-1.452-.123l-3.169,2.247a13.791,13.791,0,0,0-2.263-.934l-.627-3.818a1.13,1.13,0,0,0-1.115-.947h-4.819a1.13,1.13,0,0,0,0,2.26h3.86l.588,3.579a1.129,1.129,0,0,0,.836.912,11.522,11.522,0,0,1,3.037,1.253,1.13,1.13,0,0,0,1.229-.05l2.971-2.107,2.058,2.058-2.107,2.97a1.13,1.13,0,0,0-.051,1.229,11.476,11.476,0,0,1,1.252,3.036,1.13,1.13,0,0,0,.912.838l3.578.589v2.9l-3.578.588a1.13,1.13,0,0,0-.912.837,11.491,11.491,0,0,1-1.266,3.059,1.13,1.13,0,0,0,.053,1.237l2.115,2.945-2.05,2.05-2.945-2.115a1.13,1.13,0,0,0-1.236-.053,11.575,11.575,0,0,1-3.035,1.261,1.129,1.129,0,0,0-.833.9l-.611,3.593h-2.911l-.612-3.595a1.129,1.129,0,0,0-.834-.905,11.45,11.45,0,0,1-3.03-1.258,1.131,1.131,0,0,0-1.237.053l-2.947,2.115-2.05-2.05,2.115-2.946a1.13,1.13,0,0,0,.052-1.238,11.5,11.5,0,0,1-1.262-3.033,1.13,1.13,0,0,0-.9-.832l-3.591-.611v-2.91l3.591-.611a1.13,1.13,0,0,0,.9-.833,11.552,11.552,0,0,1,1.248-3.013,1.13,1.13,0,0,0-.051-1.228l-2.107-2.971,2.058-2.057,2.972,2.107a1.13,1.13,0,0,0,1.229.051,11.543,11.543,0,0,1,3.037-1.252,1.13,1.13,0,1,0-.557-2.19,13.816,13.816,0,0,0-2.983,1.137l-3.169-2.247a1.13,1.13,0,0,0-1.452.123l-3.407,3.405a1.129,1.129,0,0,0-.123,1.452l2.247,3.169a13.809,13.809,0,0,0-.927,2.24l-3.83.652a1.129,1.129,0,0,0-.94,1.113v4.817a1.13,1.13,0,0,0,.94,1.114l3.83.651a13.759,13.759,0,0,0,.939,2.261l-2.255,3.142a1.129,1.129,0,0,0,.119,1.458l3.407,3.407a1.13,1.13,0,0,0,1.457.119l3.143-2.256a13.721,13.721,0,0,0,2.259.938l.652,3.833a1.129,1.129,0,0,0,1.114.94h4.819a1.129,1.129,0,0,0,1.114-.94l.652-3.832a13.814,13.814,0,0,0,2.26-.938l3.142,2.256a1.129,1.129,0,0,0,1.458-.119l3.407-3.407a1.129,1.129,0,0,0,.119-1.458l-2.256-3.142a13.726,13.726,0,0,0,.946-2.285l3.816-.627a1.13,1.13,0,0,0,.947-1.115v-4.817A1.13,1.13,0,0,0,1368.517,1502.574Z" transform="translate(-1311.012 -1488.082)" fill="#ff6f00"></path><path id="Caminho_90" data-name="Caminho 90" d="M1387.955,1544.6a1.13,1.13,0,0,0-1.4.773,6.063,6.063,0,1,0,4.262-4.192,1.13,1.13,0,1,0,.586,2.182,3.806,3.806,0,1,1-2.821,3.676,3.762,3.762,0,0,1,.145-1.042A1.13,1.13,0,0,0,1387.955,1544.6Z" transform="translate(-1351.952 -1529.022)" fill="#ff6f00"></path></g><path id="Caminho_200" data-name="Caminho 200" d="M17,0A17,17,0,1,1,0,17,17,17,0,0,1,17,0Z" transform="translate(929.5 3813)" fill="#ff6f00"></path><g id="Grupo_122" data-name="Grupo 122" transform="translate(93.5 1062.194)"><g id="Grupo_121" data-name="Grupo 121" transform="translate(334.313 1909.146)"><g id="Grupo_110" data-name="Grupo 110" transform="translate(506.687 857.497)"><path id="Caminho_93" data-name="Caminho 93" d="M508.687,897.424a.865.865,0,0,1,.919-.533c.812.009,1.624,0,2.436,0a.788.788,0,0,1,.65.25.654.654,0,0,1,.13.713.7.7,0,0,1-.667.455q-1.375.016-2.752,0a.768.768,0,0,1-.716-.525Z" transform="translate(-508.238 -896.441)" fill="#fff"></path><path id="Caminho_94" data-name="Caminho 94" d="M509.235,897.218c-.465,0-.928,0-1.388-.008a1.207,1.207,0,0,1-1.124-.8l-.037-.085v-.543l.034-.082a1.291,1.291,0,0,1,1.313-.812h.027c.6.007,1.209.005,1.814,0h.616a1.245,1.245,0,0,1,1,.411,1.1,1.1,0,0,1,.2,1.176,1.142,1.142,0,0,1-1.076.73C510.153,897.215,509.694,897.218,509.235,897.218Zm-1.649-1.087a.283.283,0,0,0,.272.179c.906.011,1.829.011,2.741,0a.25.25,0,0,0,.258-.179c.027-.065.042-.129-.06-.251-.026-.031-.074-.089-.3-.089h-.616c-.609,0-1.218,0-1.827,0-.3-.005-.4.076-.465.184Z" transform="translate(-506.687 -894.89)" fill="#fff"></path></g><g id="Grupo_111" data-name="Grupo 111" transform="translate(517.55 865.57)"><path id="Caminho_95" data-name="Caminho 95" d="M557.53,937a.8.8,0,0,1-.507-.853c.027-.885.022-1.773,0-2.659a.718.718,0,0,1,.694-.682.71.71,0,0,1,.67.681c0,.886-.018,1.773.009,2.659a.8.8,0,0,1-.507.853Z" transform="translate(-556.573 -932.357)" fill="#fff"></path><path id="Caminho_96" data-name="Caminho 96" d="M556.435,935.9h-.552l-.087-.039a1.242,1.242,0,0,1-.774-1.277c.024-.782.025-1.62,0-2.635a1.075,1.075,0,0,1,.32-.78,1.183,1.183,0,0,1,.821-.361h0a1.158,1.158,0,0,1,1.117,1.13c0,.278,0,.555,0,.833,0,.6-.007,1.212.011,1.813a1.242,1.242,0,0,1-.774,1.278Zm-.351-.9h.15c.118-.069.17-.162.163-.39-.019-.617-.016-1.242-.012-1.845,0-.276,0-.551,0-.826a.267.267,0,0,0-.222-.233h0a.3.3,0,0,0-.18.092.193.193,0,0,0-.063.13c.023,1.032.022,1.885,0,2.683C555.915,934.838,555.966,934.931,556.085,935Z" transform="translate(-555.022 -930.807)" fill="#fff"></path></g><g id="Grupo_112" data-name="Grupo 112" transform="translate(517.523 846.657)"><path id="Caminho_97" data-name="Caminho 97" d="M558.331,850.775c0,.436.006.872,0,1.308a.722.722,0,0,1-.434.7.661.661,0,0,1-.735-.116.735.735,0,0,1-.255-.6c0-.872,0-1.744,0-2.616a.718.718,0,1,1,1.425.013C558.334,849.9,558.331,850.339,558.331,850.775Z" transform="translate(-556.453 -848.207)" fill="#fff"></path><path id="Caminho_98" data-name="Caminho 98" d="M556.062,851.751a1.189,1.189,0,0,1-1.158-1.229c0-.874,0-1.747,0-2.62a1.171,1.171,0,0,1,1.155-1.244h.007a1.179,1.179,0,0,1,1.162,1.255c0,.3,0,.609,0,.913v.8c0,.3,0,.61,0,.914a1.169,1.169,0,0,1-.7,1.106A1.133,1.133,0,0,1,556.062,851.751Zm0-4.2h0c-.234,0-.26.245-.26.35,0,.871,0,1.742,0,2.613,0,.182.06.231.089.254.127.1.193.087.267.054s.164-.091.169-.3c.006-.3,0-.595,0-.893v-.808c0-.3,0-.6,0-.9C556.328,847.785,556.292,847.556,556.066,847.556Z" transform="translate(-554.902 -846.657)" fill="#fff"></path></g><g id="Grupo_113" data-name="Grupo 113" transform="translate(521.569 848.104)"><path id="Caminho_99" data-name="Caminho 99" d="M574.906,858.2a.638.638,0,0,1,.116-.387c.45-.779.9-1.56,1.351-2.336a.705.705,0,1,1,1.224.7q-.68,1.2-1.382,2.4a.693.693,0,0,1-.792.326A.7.7,0,0,1,574.906,858.2Z" transform="translate(-574.453 -854.641)" fill="#fff"></path><path id="Caminho_100" data-name="Caminho 100" d="M574.059,857.822a1.135,1.135,0,0,1-.31-.044,1.149,1.149,0,0,1-.843-1.1,1.072,1.072,0,0,1,.176-.638l.385-.667q.482-.837.967-1.671a1.155,1.155,0,0,1,1.57-.461,1.132,1.132,0,0,1,.554.686,1.194,1.194,0,0,1-.12.92c-.393.7-.821,1.437-1.385,2.4A1.154,1.154,0,0,1,574.059,857.822Zm1.386-3.83a.279.279,0,0,0-.235.16q-.486.831-.964,1.666l-.385.668a.484.484,0,0,0-.059.124l0,.027v.01a.255.255,0,0,0,.192.266.246.246,0,0,0,.28-.121c.563-.962.988-1.7,1.378-2.391a.3.3,0,0,0,.038-.231.238.238,0,0,0-.12-.144A.265.265,0,0,0,575.445,853.992Z" transform="translate(-572.902 -853.094)" fill="#fff"></path></g><g id="Grupo_114" data-name="Grupo 114" transform="translate(508.135 852.088)"><path id="Caminho_101" data-name="Caminho 101" d="M518.249,875.609a.655.655,0,0,1-.376-.1q-1.18-.679-2.358-1.362a.7.7,0,1,1,.687-1.218q1.2.681,2.4,1.381a.706.706,0,0,1,.324.793A.7.7,0,0,1,518.249,875.609Z" transform="translate(-514.683 -872.375)" fill="#fff"></path><path id="Caminho_102" data-name="Caminho 102" d="M516.656,874.508a1.126,1.126,0,0,1-.562-.164l-.168-.1q-1.1-.631-2.192-1.267a1.149,1.149,0,0,1-.455-1.576,1.128,1.128,0,0,1,.684-.538,1.183,1.183,0,0,1,.905.117c.716.4,1.479.845,2.4,1.385a1.155,1.155,0,0,1,.528,1.31,1.137,1.137,0,0,1-1.087.828Zm-2.384-2.785a.254.254,0,0,0-.068.009.234.234,0,0,0-.142.113.256.256,0,0,0,.124.36q1.091.637,2.187,1.264l.168.1a.241.241,0,0,0,.115.044l.035,0a.246.246,0,0,0,.247-.186.258.258,0,0,0-.12-.277c-.921-.538-1.681-.976-2.393-1.378A.313.313,0,0,0,514.272,871.723Z" transform="translate(-513.128 -870.824)" fill="#fff"></path></g><g id="Grupo_115" data-name="Grupo 115" transform="translate(512.114 848.107)"><path id="Caminho_103" data-name="Caminho 103" d="M535.612,858.23a.7.7,0,0,1-1.282.379q-.719-1.222-1.416-2.456a.7.7,0,0,1,1.215-.683c.472.8.933,1.609,1.4,2.416A.6.6,0,0,1,535.612,858.23Z" transform="translate(-532.377 -854.665)" fill="#fff"></path><path id="Caminho_104" data-name="Caminho 104" d="M533.379,857.827a1.147,1.147,0,0,1-.981-.545c-.535-.908-1-1.714-1.42-2.464a1.146,1.146,0,0,1,1.994-1.131c.4.685.8,1.375,1.194,2.064l.2.356a1.039,1.039,0,0,1,.147.583,1.146,1.146,0,0,1-.814,1.088A1.1,1.1,0,0,1,533.379,857.827Zm-1.4-3.817a.251.251,0,0,0-.126.035.248.248,0,0,0-.091.333c.418.744.88,1.545,1.411,2.448a.254.254,0,0,0,.265.093.246.246,0,0,0,.18-.242v-.036a.164.164,0,0,0-.029-.086l-.2-.357c-.394-.687-.787-1.373-1.189-2.055A.254.254,0,0,0,531.979,854.01Z" transform="translate(-530.833 -853.11)" fill="#fff"></path></g><g id="Grupo_116" data-name="Grupo 116" transform="translate(508.145 861.55)"><path id="Caminho_105" data-name="Caminho 105" d="M518.316,914.925a.669.669,0,0,1,.636.524.659.659,0,0,1-.281.741c-.767.454-1.546.889-2.312,1.346a.77.77,0,0,1-.86.065.686.686,0,0,1-.16-1.03,3.681,3.681,0,0,1,.865-.559c.564-.341,1.144-.657,1.715-.986A.7.7,0,0,1,518.316,914.925Z" transform="translate(-514.724 -914.475)" fill="#fff"></path><path id="Caminho_106" data-name="Caminho 106" d="M514.3,916.6a1.135,1.135,0,0,1-1.118-.979,1.094,1.094,0,0,1,.275-.909,2.6,2.6,0,0,1,.723-.505c.08-.043.16-.085.238-.132.368-.223.746-.436,1.111-.643.2-.116.408-.231.612-.348a1.149,1.149,0,0,1,.63-.16,1.142,1.142,0,0,1,.575,2.1c-.363.215-.728.425-1.093.636-.407.234-.814.469-1.217.709A1.44,1.44,0,0,1,514.3,916.6Zm2.432-2.779a.246.246,0,0,0-.143.04c-.2.118-.411.235-.618.352-.36.2-.732.414-1.089.63-.091.055-.185.105-.28.156a1.841,1.841,0,0,0-.489.325.209.209,0,0,0-.043.168.23.23,0,0,0,.1.168c.078.047.146.087.4-.065.407-.242.818-.479,1.228-.716.362-.209.724-.418,1.084-.63a.213.213,0,0,0,.081-.221c-.063-.206-.174-.207-.21-.207h-.026Z" transform="translate(-513.173 -912.924)" fill="#fff"></path></g><g id="Grupo_117" data-name="Grupo 117" transform="translate(512.107 864.5)"><path id="Caminho_107" data-name="Caminho 107" d="M535.6,928.771a.979.979,0,0,1-.219.546c-.391.692-.789,1.379-1.188,2.066-.257.442-.581.574-.963.4a.675.675,0,0,1-.34-.939c.47-.836.954-1.664,1.444-2.489a.69.69,0,0,1,.806-.278A.716.716,0,0,1,535.6,928.771Z" transform="translate(-532.355 -927.597)" fill="#fff"></path><path id="Caminho_108" data-name="Caminho 108" d="M531.99,930.757a1.248,1.248,0,0,1-.5-.11,1.162,1.162,0,0,1-.632-.693,1.075,1.075,0,0,1,.083-.876c.411-.731.857-1.5,1.448-2.5a1.139,1.139,0,0,1,1.322-.479,1.162,1.162,0,0,1,.781,1.106,1.146,1.146,0,0,1-.224.694c-.018.029-.036.059-.053.089-.391.693-.79,1.382-1.19,2.07A1.187,1.187,0,0,1,531.99,930.757Zm1.364-3.811a.21.21,0,0,0-.19.092c-.587.99-1.031,1.755-1.438,2.48a.182.182,0,0,0-.013.153.26.26,0,0,0,.144.154c.1.046.21.094.391-.219q.6-1.028,1.186-2.061c.023-.04.047-.08.072-.12a.79.79,0,0,0,.09-.17l0-.02v-.019a.28.28,0,0,0-.141-.255A.347.347,0,0,0,533.355,926.947Z" transform="translate(-530.803 -926.047)" fill="#fff"></path></g><g id="Grupo_118" data-name="Grupo 118" transform="translate(524.522 861.552)"><path id="Caminho_109" data-name="Caminho 109" d="M588.75,914.93a1.149,1.149,0,0,1,.626.252c.653.368,1.3.747,1.947,1.125a.9.9,0,0,1,.5.54.666.666,0,0,1-.23.705.7.7,0,0,1-.8.064l-2.318-1.338a.744.744,0,0,1-.423-.769A.692.692,0,0,1,588.75,914.93Z" transform="translate(-587.594 -914.48)" fill="#fff"></path><path id="Caminho_110" data-name="Caminho 110" d="M589.61,916.612a1.169,1.169,0,0,1-.584-.156l-2.318-1.338a1.179,1.179,0,0,1-.632-1.274,1.144,1.144,0,0,1,1.117-.913,1.283,1.283,0,0,1,.754.249c.034.021.067.042.1.061.615.346,1.233.707,1.83,1.056l.123.072a1.322,1.322,0,0,1,.713.817,1.145,1.145,0,0,1-1.1,1.426Zm-2.424-2.782c-.067,0-.18.011-.242.245-.007.035.048.168.213.264l2.318,1.338a.252.252,0,0,0,.273-.01.222.222,0,0,0,.094-.258c-.023-.092-.091-.144-.3-.264l-.124-.072c-.594-.347-1.209-.707-1.818-1.049-.045-.025-.09-.053-.135-.081a.537.537,0,0,0-.25-.113h-.036Z" transform="translate(-586.044 -912.931)" fill="#fff"></path></g><g id="Grupo_119" data-name="Grupo 119" transform="translate(521.574 864.486)"><path id="Caminho_111" data-name="Caminho 111" d="M575.633,928.019a.753.753,0,0,1,.563.319q.489.848.981,1.692c.135.234.265.47.405.7a.731.731,0,0,1-.151.964.676.676,0,0,1-1-.194c-.217-.332-.407-.682-.606-1.026-.27-.467-.536-.937-.806-1.4a.674.674,0,0,1,.007-.707A.764.764,0,0,1,575.633,928.019Z" transform="translate(-574.475 -927.562)" fill="#fff"></path><path id="Caminho_112" data-name="Caminho 112" d="M575.453,930.708a1.064,1.064,0,0,1-.214-.021,1.154,1.154,0,0,1-.733-.517c-.171-.263-.326-.534-.476-.8l-.143-.25q-.2-.354-.407-.71t-.4-.694a1.123,1.123,0,0,1,0-1.153,1.225,1.225,0,0,1,.929-.568l.083-.013.082.018a1.186,1.186,0,0,1,.857.533q.319.553.64,1.1l.482.833c.085.15.17.3.259.447a1.171,1.171,0,0,1-.285,1.569A1.22,1.22,0,0,1,575.453,930.708Zm-1.38-3.807c-.162.035-.189.081-.2.107a.229.229,0,0,0-.009.261c.134.232.267.465.4.7s.269.471.405.706l.146.255c.149.263.291.511.447.75a.271.271,0,0,0,.159.127.252.252,0,0,0,.231-.419c-.093-.154-.183-.311-.272-.468l-.478-.826q-.321-.553-.642-1.107C574.239,926.952,574.2,926.931,574.073,926.9Z" transform="translate(-572.925 -925.985)" fill="#fff"></path></g><g id="Grupo_120" data-name="Grupo 120" transform="translate(525.596 857.535)"><path id="Caminho_113" data-name="Caminho 113" d="M594.92,897.057c.473,0,.946,0,1.419,0a.676.676,0,0,1,0,1.351q-1.408,0-2.816,0a.676.676,0,1,1,0-1.352Z" transform="translate(-592.373 -896.608)" fill="#fff"></path><path id="Caminho_114" data-name="Caminho 114" d="M593.337,897.31h-1.362a1.174,1.174,0,0,1-.8-.331,1.116,1.116,0,0,1-.349-.8,1.17,1.17,0,0,1,1.149-1.124h2.818a1.1,1.1,0,0,1,1.123,1.14,1.1,1.1,0,0,1-1.121,1.11Zm-.838-1.353h-.526a.273.273,0,0,0-.252.226.218.218,0,0,0,.074.147.272.272,0,0,0,.181.08q1.407,0,2.814,0a.206.206,0,0,0,.224-.221.209.209,0,0,0-.227-.231H592.5Z" transform="translate(-590.823 -895.058)" fill="#fff"></path></g></g></g></g></svg>