<svg xmlns="http://www.w3.org/2000/svg" width="108" height="108.492" viewBox="0 0 108 108.492"><g id="Grupo_243" data-name="Grupo 243" transform="translate(-470.273 -3738.508)"><circle id="Elipse_17" data-name="Elipse 17" cx="54" cy="54" r="54" transform="translate(470.273 3738.508)" fill="#fff"></circle><g id="Grupo_108" data-name="Grupo 108" transform="translate(498.273 3764.355)"><path id="Caminho_84" data-name="Caminho 84" d="M333.758,1067.486V1049.4a1.13,1.13,0,0,0-1.13-1.13H299.775a1.13,1.13,0,0,0-1.13,1.13v11.283H300.9v-10.154h25.338a1.125,1.125,0,0,0-.047.173l-.515,3.13a11.832,11.832,0,0,0-1.748.722l-2.6-1.843a1.129,1.129,0,0,0-1.452.122L317,1055.721a1.13,1.13,0,0,0-.123,1.453l1.843,2.6a11.849,11.849,0,0,0-.717,1.73l-3.14.534a1.13,1.13,0,0,0-.94,1.114v4.081a1.13,1.13,0,0,0,.94,1.114l3.14.534a11.8,11.8,0,0,0,.726,1.747l-1.848,2.574a1.129,1.129,0,0,0,.119,1.457l2.885,2.886a1.13,1.13,0,0,0,1.458.119l2.577-1.849a11.937,11.937,0,0,0,1.745.725l.491,2.88H300.9v-5.128h-2.259v6.258a1.13,1.13,0,0,0,1.13,1.13h32.853a1.13,1.13,0,0,0,1.13-1.13v-12.54A1.123,1.123,0,0,0,333.758,1067.486Zm-5.326,11.934a1.087,1.087,0,0,0-.008-.117l-.654-3.839a1.13,1.13,0,0,0-.832-.9,9.7,9.7,0,0,1-2.525-1.05,1.129,1.129,0,0,0-1.234.054l-2.376,1.705-1.529-1.529,1.705-2.375a1.13,1.13,0,0,0,.053-1.237,9.553,9.553,0,0,1-1.049-2.522,1.129,1.129,0,0,0-.9-.834l-2.9-.493V1064.1l2.9-.493a1.13,1.13,0,0,0,.9-.833,9.574,9.574,0,0,1,1.038-2.506,1.13,1.13,0,0,0-.051-1.229l-1.7-2.4,1.536-1.536,2.4,1.7a1.13,1.13,0,0,0,1.229.051,9.568,9.568,0,0,1,2.525-1.042,1.13,1.13,0,0,0,.837-.912l.631-3.834a1.115,1.115,0,0,0-.048-.54H331.5v9.8a5.312,5.312,0,0,0-2.153-.452,5.63,5.63,0,0,0-.954.088,1.13,1.13,0,1,0,.4,2.224,3.345,3.345,0,0,1,.564-.053,3.025,3.025,0,0,1,2.146.885v4.328a3.048,3.048,0,0,1-5.2-2.161,3.328,3.328,0,0,1,.047-.544,1.13,1.13,0,0,0-2.229-.371,5.59,5.59,0,0,0-.078.915,5.314,5.314,0,0,0,7.458,4.856v9.373Z" transform="translate(-274.197 -1048.273)" fill="#ff6f00"></path><path id="Caminho_85" data-name="Caminho 85" d="M222.775,1064.794a5.784,5.784,0,1,0-5.783-5.785A5.79,5.79,0,0,0,222.775,1064.794Zm0-9.308a3.524,3.524,0,1,1-3.524,3.523A3.527,3.527,0,0,1,222.775,1055.487Z" transform="translate(-210.993 -1052.108)" fill="#ff6f00"></path><rect id="Ret&#xE2;ngulo_48" data-name="Ret&#xE2;ngulo 48" width="2.259" height="18.24" transform="translate(10.654 38.577)" fill="#ff6f00"></rect><path id="Caminho_86" data-name="Caminho 86" d="M225.107,1116.422v-.154a1.13,1.13,0,0,0-1.13-1.136H197.75a7.317,7.317,0,0,0-7.309,7.308v10.5c0,4.025,1.706,6.623,4.629,7.189v16.715h2.259v-32.533H195.07v13.478c-1.923-.669-2.369-2.915-2.369-4.849v-10.5a5.055,5.055,0,0,1,5.05-5.049h24.986c-.537,2.169-2.909,2.658-4.937,2.658h-9.552a1.13,1.13,0,0,0-1.13,1.13v35.662h2.259v-34.533H217.8C222.375,1122.309,225.107,1120.106,225.107,1116.422Z" transform="translate(-190.441 -1100.025)" fill="#ff6f00"></path></g><circle id="Elipse_20" data-name="Elipse 20" cx="17" cy="17" r="17" transform="translate(544.273 3813)" fill="#ff6f00"></circle><path id="Caminho_92" data-name="Caminho 92" d="M598.932,278.5a7.328,7.328,0,1,0-.713,10.987l5.221,6.117a1.745,1.745,0,0,0,.181.182,1.629,1.629,0,0,0,2.115-2.478l-6.125-5.228A7.338,7.338,0,0,0,598.932,278.5Zm-1.454,8.91a5.273,5.273,0,0,1-7.457-7.457,5.35,5.35,0,0,1,7.275-.173c-.091-.085.048.04.181.173A5.278,5.278,0,0,1,597.479,287.409Z" transform="translate(-35.301 3543.323)" fill="#fff"></path></g></svg>