<svg xmlns="http://www.w3.org/2000/svg" width="28.008" height="42.715" viewBox="0 0 28.008 42.715"><path id="Caminho_5215" data-name="Caminho 5215" d="M12.568,57.324H30.381V65H2.432V61.836A14.727,14.727,0,0,1,3.516,56.05a19.2,19.2,0,0,1,2.725-4.6,23.633,23.633,0,0,1,3.589-3.6q1.948-1.567,3.706-2.827,1.846-1.318,3.237-2.52a18.448,18.448,0,0,0,2.344-2.388,9.078,9.078,0,0,0,1.421-2.4,7.145,7.145,0,0,0,.469-2.593,5.211,5.211,0,0,0-1.523-4.072,6.773,6.773,0,0,0-4.658-1.377q-5.42,0-10.371,4.307V25.83a22.263,22.263,0,0,1,12.363-3.545,18.259,18.259,0,0,1,5.728.835,12.117,12.117,0,0,1,4.292,2.388,10.184,10.184,0,0,1,2.681,3.765,12.7,12.7,0,0,1,.923,4.937,13.919,13.919,0,0,1-.894,5.156,15.844,15.844,0,0,1-2.373,4.1,21.526,21.526,0,0,1-3.413,3.384q-1.934,1.538-4.014,2.974-1.406,1-2.71,1.978a25.691,25.691,0,0,0-2.3,1.934,10.5,10.5,0,0,0-1.582,1.86A3.211,3.211,0,0,0,12.568,57.324Z" transform="translate(-2.432 -22.285)" fill="#ff6f00"></path></svg>