<svg xmlns="http://www.w3.org/2000/svg" width="26.777" height="43.447" viewBox="0 0 26.777 43.447"><path id="Caminho_5216" data-name="Caminho 5216" d="M3.428,63.623V55.566a16.262,16.262,0,0,0,9.844,3.076,8.862,8.862,0,0,0,5.522-1.523,5.058,5.058,0,0,0,1.978-4.248,4.829,4.829,0,0,0-2.446-4.336A12.674,12.674,0,0,0,11.6,47.012h-3.9v-7.09h3.6q8.2,0,8.2-5.449,0-5.127-6.3-5.127a14.361,14.361,0,0,0-8.2,2.725V24.512a22.656,22.656,0,0,1,10.313-2.227q6.445,0,10.034,2.9a9.23,9.23,0,0,1,3.589,7.529q0,8.232-8.35,10.313v.146a11.351,11.351,0,0,1,7.031,3.237,9.128,9.128,0,0,1,2.578,6.577A11.272,11.272,0,0,1,25.9,62.3Q21.592,65.732,14,65.732A22.989,22.989,0,0,1,3.428,63.623Z" transform="translate(-3.428 -22.285)" fill="#ff6f00"></path></svg>