<svg xmlns="http://www.w3.org/2000/svg" width="108" height="108.492" viewBox="0 0 108 108.492"><g id="Grupo_234" data-name="Grupo 234" transform="translate(-1245.5 -3738.508)"><circle id="Elipse_19" data-name="Elipse 19" cx="54" cy="54" r="54" transform="translate(1245.5 3738.508)" fill="#fff"></circle><path id="Caminho_91" data-name="Caminho 91" d="M1303.622,1079.006a5.719,5.719,0,0,0-1.832-3.3l-1.662-1.662,2.311-2.31a3.948,3.948,0,0,0-.036-5.572l-.46-.454a1.553,1.553,0,0,1-1.618-2.441,3.96,3.96,0,0,0-1.166-2.781l-.463-.461a3.974,3.974,0,0,1-2.88-5.129l-.458-.454a3.946,3.946,0,0,0-2.811-1.17h0a3.874,3.874,0,0,0-1.987.545,3.969,3.969,0,0,0-.975-1.6l-.464-.464a3.943,3.943,0,0,0-5.569-.034l-2.876,2.877-4.156-4.155a5.323,5.323,0,0,1-1.11-4.324c.016-.188.03-.35.032-.472a10.593,10.593,0,0,0-14.559-10.228,1.13,1.13,0,0,0-.375,1.846l4.972,4.973a2.491,2.491,0,0,1,.726,1.79,2.557,2.557,0,0,1-4.345,1.826l-4.969-4.973a1.13,1.13,0,0,0-1.846.375,10.593,10.593,0,0,0,10.216,14.557c.142,0,.3-.016.487-.032a6.356,6.356,0,0,1,3.238.379l.943-2.053a8.456,8.456,0,0,0-4.37-.577c-.141.012-.257.023-.344.024h-.023a8.336,8.336,0,0,1-8.545-9.721l3.616,3.619a4.816,4.816,0,0,0,8.2-3.413,4.732,4.732,0,0,0-1.388-3.4l-3.618-3.619a8.316,8.316,0,0,1,7.29,2.324,8.4,8.4,0,0,1,2.434,6.242c0,.086-.013.2-.024.341a7.5,7.5,0,0,0,1.731,6.08l.021.021,1.8,1.8a4.836,4.836,0,0,0-1.045-.041,1.129,1.129,0,0,0-.447.142,16.965,16.965,0,0,0-6.983,7.5c-.889,1.785-1.723,8.777-1.882,10.173,0,.013,0,.025,0,.038a4.878,4.878,0,0,1-.718,2.232,1.13,1.13,0,1,0,1.817,1.343,6.922,6.922,0,0,0,1.151-3.375c.381-3.331,1.146-8.439,1.658-9.406a1.133,1.133,0,0,0,.049-.1,14.688,14.688,0,0,1,5.786-6.295,3.414,3.414,0,0,1,2.26.985c.712.714,6.24,6.242,8.417,8.418-1.169.831-3.281,1.871-4.979.174l-4.32-4.321a1.13,1.13,0,1,0-1.6,1.6l1.655,1.655c.022.027.04.055.066.08,3.62,3.62,1.472,8.247,1.375,8.451a1.13,1.13,0,0,0,2.032.987,10.475,10.475,0,0,0,.846-5.691,6.11,6.11,0,0,0,5.669-.713,3.95,3.95,0,0,0,1.143,2.4l.463.464a3.95,3.95,0,0,0,2.781,1.164h.055a3.967,3.967,0,0,0,1.164,2.836l.463.464a3.957,3.957,0,0,0,2.781,1.165h.032a3.876,3.876,0,0,0,2.052-.582l1.737,1.737a3.606,3.606,0,0,1,1.184,1.96c.023.2.1.827-.78,1.7s-1.5.8-1.7.779a3.6,3.6,0,0,1-1.959-1.182l-10.1-10.1-1.6,1.6,6.74,6.739c-3.671,3.365-6.5,5.506-8.424,6.367a6.812,6.812,0,0,1-4.275.573,1.129,1.129,0,0,0-1.113.286l-2.289,2.29-13.834-13.833a1.129,1.129,0,0,0-1.6,0l-5.382,5.382a1.13,1.13,0,0,0,1.6,1.6l4.583-4.583,15.349,15.348-4.583,4.583a1.13,1.13,0,1,0,1.6,1.6l5.382-5.382a1.129,1.129,0,0,0,0-1.6l-1.515-1.515,1.87-1.87a9.534,9.534,0,0,0,5.135-.817c2.182-.978,5.164-3.216,9.1-6.829l1.758,1.758a5.718,5.718,0,0,0,3.3,1.829,3.874,3.874,0,0,0,.441.026,4.375,4.375,0,0,0,3.115-1.451A4.241,4.241,0,0,0,1303.622,1079.006Zm-22.122-22.043,3.65-3.651a1.681,1.681,0,0,1,2.373.033l.464.463a1.683,1.683,0,0,1,.047,2.357l-2.874,2.873-.793.792Zm4.466,4.466.819-.819,2.834-2.832.014-.015,1.761-1.76a1.616,1.616,0,0,1,1.153-.473h0a1.706,1.706,0,0,1,1.216.51l.458.454a1.682,1.682,0,0,1,.033,2.374l-5.424,5.425Zm5.96,8a1.7,1.7,0,0,1-1.2-.5l-.463-.464a1.71,1.71,0,0,1-.5-1.2,1.62,1.62,0,0,1,.472-1.17h0l.7-.7,3.8-3.8h0a1.613,1.613,0,0,1,1.152-.47h.015a1.711,1.711,0,0,1,1.2.505l.462.46a1.712,1.712,0,0,1,.5,1.2,1.613,1.613,0,0,1-.471,1.167l-1.209,1.209-.01.009-3.281,3.282A1.607,1.607,0,0,1,1291.926,1069.426Zm4.464,4.464a1.709,1.709,0,0,1-1.2-.5l-.463-.463a1.682,1.682,0,0,1-.032-2.373l.694-.694,2.6-2.6a1.618,1.618,0,0,1,1.143-.461h0a1.71,1.71,0,0,1,1.22.511l.459.453a1.683,1.683,0,0,1,.033,2.373l-3.283,3.281A1.656,1.656,0,0,1,1296.39,1073.89Z" transform="translate(20.541 2724.198)" fill="#ff6f00"></path><path id="Caminho_116" data-name="Caminho 116" d="M17,0A17,17,0,1,1,0,17,17,17,0,0,1,17,0Z" transform="translate(1319.5 3813)" fill="#38c7b9"></path><path id="Caminho_115" data-name="Caminho 115" d="M833.634,296.612c-.147-.172-.229-.281-.324-.376q-1.917-1.92-3.838-3.837a1.253,1.253,0,0,0-1.971,0c-.36.353-.717.709-1.069,1.071a1.235,1.235,0,0,0-.008,1.915q3.127,3.138,6.265,6.265a1.218,1.218,0,0,0,1.862.005q5.134-5.125,10.258-10.261a1.223,1.223,0,0,0,0-1.836c-.331-.348-.677-.681-1.016-1.02a1.306,1.306,0,0,0-2.155-.009q-3.852,3.85-7.7,7.7C833.848,296.326,833.772,296.44,833.634,296.612Z" transform="translate(500.899 3534.975)" fill="#fff"></path></g></svg>