<svg xmlns="http://www.w3.org/2000/svg" viewBox="-8 0 64 65" fill="none">
  <path fill-rule="evenodd" clip-rule="evenodd" d="M9.85988 14.7898C9.85988 17.5122 7.65238 19.7197 4.92994 19.7197C2.2075 19.7197 0 17.5122 0 14.7898C0 12.0674 2.2075 9.85986 4.92994 9.85986C7.65238 9.85986 9.85988 12.0674 9.85988 14.7898Z" fill="#FF6F00"/>
  <path d="M54.8744 11.5216C57.5102 10.4299 58.7618 7.40816 57.6701 4.77243C56.5783 2.1367 53.5566 0.88506 50.9209 1.97681C48.2851 3.06857 47.0335 6.09029 48.1252 8.72603C49.217 11.3618 52.2387 12.6134 54.8744 11.5216Z" fill="#FF6F00"/>
  <path fill-rule="evenodd" clip-rule="evenodd" d="M30.4015 60.3917C30.4015 62.8887 28.3769 64.9108 25.8824 64.9108C23.3879 64.9108 21.3633 62.8887 21.3633 60.3917C21.3633 57.8947 23.3854 55.8726 25.8824 55.8726C28.3794 55.8726 30.4015 57.8947 30.4015 60.3917Z" fill="#FF6F00"/>
  <path fill-rule="evenodd" clip-rule="evenodd" d="M31.5126 16.6651C31.5126 12.8887 33.8525 9.68716 37.109 8.51516C34.6411 5.32841 30.8589 3.28662 26.6125 3.28662C19.1759 3.28662 13.1484 9.5422 13.1484 17.2548C13.1484 24.9674 19.1782 31.2229 26.6125 31.2229C31.2734 31.2229 35.3801 28.7635 37.7981 25.0288C34.1888 24.0853 31.5126 20.7044 31.5126 16.6651Z" fill="#FF6F00"/>
  <path fill-rule="evenodd" clip-rule="evenodd" d="M39.6741 8.21655C38.6779 8.21655 37.7261 8.39082 36.8359 8.70008C38.7667 11.0907 39.9281 14.1244 39.9281 17.4306C39.9281 20.3072 39.0527 22.9776 37.5535 25.1989C38.2341 25.3707 38.9418 25.4713 39.6741 25.4713C44.4603 25.4713 48.3391 21.608 48.3391 16.8439C48.3391 12.0799 44.4579 8.21901 39.6741 8.21901V8.21655Z" fill="#FF6F00"/>
  <path fill-rule="evenodd" clip-rule="evenodd" d="M24.8588 43.044C26.5223 41.2538 29.0847 40.8057 31.2013 41.7361C31.3913 39.0983 30.4316 36.4021 28.3418 34.4609C24.6834 31.0632 18.9644 31.2751 15.5666 34.931C12.1663 38.5868 12.3782 44.3081 16.0367 47.7057C18.3286 49.8345 21.4317 50.5457 24.2669 49.8807C22.9078 47.7837 23.0807 44.9584 24.8588 43.044Z" fill="#FF6F00"/>
  <path fill-rule="evenodd" clip-rule="evenodd" d="M32.7984 42.9207C32.3473 42.4856 31.8401 42.1501 31.3071 41.9045C31.1692 43.8835 30.4142 45.8283 29.0141 47.3964C27.7986 48.7578 26.2699 49.6403 24.6523 50.0366C24.8884 50.4159 25.1666 50.7732 25.4985 51.0941C27.6677 53.1922 31.0617 53.0609 33.0789 50.8048C35.0938 48.5488 34.9699 45.0188 32.7984 42.9207Z" fill="#FF6F00"/>
</svg>
